<?xml version="1.0" standalone="no"?>
<!DOCTYPE svg PUBLIC "-//W3C//DTD SVG 1.1//EN" "http://www.w3.org/Graphics/SVG/1.1/DTD/svg11.dtd" >
<svg xmlns="http://www.w3.org/2000/svg">
<metadata>Generated by IcoMoon</metadata>
<defs>
<font id="Bershka" horiz-adv-x="1024">
<font-face units-per-em="1024" ascent="960" descent="-64" />
<missing-glyph horiz-adv-x="1024" />
<glyph unicode="&#x20;" horiz-adv-x="512" d="" />
<glyph unicode="&#xe900;" glyph-name="play-video-48" d="M378.148 633.563v-370.679c0-18.151 19.724-29.43 35.368-20.225l308.899 181.764c15.269 8.985 15.456 31.001 0.342 40.245l-308.899 188.915c-15.637 9.563-35.71-1.69-35.71-20.020zM664.901 445.037l-239.82-141.116v287.784l239.82-146.667zM511.776-62.314c281.962 0 510.537 228.575 510.537 510.537s-228.575 510.537-510.537 510.537c-281.962 0-510.537-228.575-510.537-510.537s228.575-510.537 510.537-510.537zM511.776-15.38c-256.041 0-463.604 207.563-463.604 463.604s207.563 463.604 463.604 463.604c256.041 0 463.604-207.563 463.604-463.604s-207.563-463.604-463.604-463.604z" />
<glyph unicode="&#xe901;" glyph-name="facebook-32" d="M588.401 437.189h-49.997v-178.125h-74.035v178.125h-35.226v62.95h35.226v40.73c0 29.158 13.85 74.726 74.726 74.726l54.886-0.205v-61.107h-39.834c-6.477 0-15.718-3.251-15.718-17.152v-37.018h56.422l-6.451-62.925zM512.010 755.192c-169.395 0-307.2-137.805-307.2-307.2 0-169.37 137.805-307.2 307.2-307.2 169.37 0 307.2 137.83 307.2 307.2 0 169.395-137.805 307.2-307.2 307.2v0z" />
<glyph unicode="&#xe902;" glyph-name="facebook-white-32" d="M785.067 755.2h-546.133c-18.851 0-34.133-15.282-34.133-34.133v-546.133c0-18.851 15.282-34.133 34.133-34.133h294.059v237.568h-79.787v93.013h79.787v68.267c0 79.36 48.469 122.539 119.467 122.539 23.885 0.070 47.757-1.155 71.509-3.669v-82.517h-49.152c-38.4 0-45.824-18.261-45.824-45.141v-59.221h92.075l-11.947-93.013h-80.128v-237.824h156.075c18.851 0 34.133 15.282 34.133 34.133v546.133c0 18.851-15.282 34.133-34.133 34.133z" />
<glyph unicode="&#xe903;" glyph-name="instagram-32" d="M559.416 447.176c0-26.138-21.248-47.437-47.437-47.437-26.112 0-47.411 21.299-47.411 47.437s21.299 47.411 47.411 47.411c26.163 0 47.437-21.274 47.437-47.411v0zM596.767 512.302c-10.701 0-19.43 8.73-19.43 19.456 0 10.701 8.73 19.43 19.43 19.43 10.726 0 19.456-8.73 19.456-19.43 0-10.726-8.73-19.456-19.456-19.456v0zM511.98 365.051c-45.261 0-82.125 36.813-82.125 82.125 0 45.286 36.864 82.125 82.125 82.125 45.312 0 82.15-36.838 82.15-82.125s-36.838-82.125-82.15-82.125v0zM591.007 571.924h-158.003c-25.242 0-45.747-20.531-45.747-45.747v-158.003c0-25.216 20.506-45.747 45.747-45.747h158.003c25.216 0 45.747 20.506 45.747 45.747v158.003c0 25.216-20.506 45.747-45.747 45.747v0zM671.442 368.174c0-44.365-36.070-80.461-80.435-80.461h-158.003c-44.365 0-80.461 36.096-80.461 80.461v158.003c0 44.365 36.096 80.461 80.461 80.461h158.003c44.365 0 80.435-36.096 80.435-80.461v-158.003zM511.98 755.195c-169.626 0-307.2-137.549-307.2-307.2s137.574-307.2 307.2-307.2c169.677 0 307.2 137.549 307.2 307.2s-137.523 307.2-307.2 307.2v0z" />
<glyph unicode="&#xe904;" glyph-name="spotify-32" d="M665.595 448.003c0 84.787-68.813 153.6-153.6 153.6s-153.6-68.813-153.6-153.6c0-84.787 68.813-153.6 153.6-153.6s153.6 68.813 153.6 153.6zM819.195 448.003c0-169.37-137.805-307.2-307.2-307.2s-307.2 137.83-307.2 307.2c0 169.395 137.805 307.2 307.2 307.2 169.421 0 307.2-137.805 307.2-307.2zM488.033 401.308c-19.046 0-37.837-2.842-55.91-8.346-5.632-1.741-8.704-13.517-7.014-19.072 1.741-5.632 7.629-8.704 13.158-6.989 15.974 5.043 32.691 7.501 49.664 7.501 28.134 0 56.141-7.27 80.717-20.787 1.587-0.845 3.328-1.203 5.043-1.203 3.686 0 7.245 1.946 9.216 5.504 2.816 5.171 0.973 17.459-3.942 20.045-27.648 15.232-59.11 23.347-90.931 23.347zM487.931 520.502c-23.603 0-47.206-2.816-69.939-8.474-7.603-1.971-12.16-11.059-10.317-18.56 1.843-7.603 9.446-12.16 17.075-10.317 20.634 5.146 41.907 7.731 63.181 7.731 40.909 0 80.102-9.088 116.48-27.29 1.971-0.973 4.173-1.459 6.246-1.459 5.171 0 10.086 4.301 12.672 9.216 3.43 7.014 0.614 15.488-6.374 18.918-40.32 20.045-83.686 30.234-129.024 30.234zM602.44 415.798c-2.202-4.301-6.528-11.034-10.931-11.034-1.971 0-3.814 0.358-5.658 1.331-30.49 15.846-63.411 23.834-98.048 23.834-19.046 0-37.99-2.458-56.166-7.501-6.63-1.818-13.389 2.099-15.104 8.602-1.741 6.656 2.074 17.843 8.576 19.558 20.403 5.53 41.421 8.346 62.694 8.346 37.965 0 75.802-9.216 109.363-26.65 6.118-2.944 8.474-10.445 5.274-16.486z" />
<glyph unicode="&#xe905;" glyph-name="twitter-32" d="M649.047 518.313c0.128-3.046 0.205-6.118 0.205-9.19 0-93.44-71.117-201.139-201.19-201.139-39.936 0-77.082 11.674-108.39 31.744 5.53-0.64 11.187-0.998 16.87-0.998 33.126 0 63.642 11.315 87.834 30.259-30.95 0.589-57.088 21.018-66.048 49.126 4.301-0.819 8.73-1.28 13.261-1.28 6.451 0 12.698 0.845 18.662 2.458-32.358 6.502-56.73 35.072-56.73 69.35 0 0.307 0 0.589 0.026 0.87 9.523-5.274 20.429-8.474 32-8.832-18.944 12.672-31.437 34.33-31.437 58.854 0 12.954 3.456 25.114 9.574 35.558 34.842-42.803 86.963-70.938 145.715-73.882-1.203 5.171-1.818 10.547-1.818 16.102 0 39.040 31.667 70.707 70.682 70.707 20.352 0 38.707-8.576 51.635-22.323 16.128 3.174 31.206 9.037 44.902 17.152-5.299-16.512-16.486-30.362-31.13-39.117 14.336 1.715 27.981 5.504 40.627 11.136-9.446-14.157-21.427-26.624-35.251-36.557zM511.985 755.19c-169.37 0-307.2-137.805-307.2-307.2 0-169.37 137.83-307.2 307.2-307.2 169.395 0 307.2 137.83 307.2 307.2 0 169.395-137.779 307.2-307.2 307.2z" />
<glyph unicode="&#xe906;" glyph-name="youtube-32" d="M473.603 524.803l115.2-76.8-115.2-76.8v153.6zM700.751 379.215c-2.074-25.574-21.53-58.189-48.666-62.925-86.989-6.758-190.054-5.914-280.141 0-28.083 3.533-46.566 37.402-48.64 62.925-4.378 53.709-4.378 84.25 0 137.958 2.074 25.523 20.992 59.213 48.64 62.259 89.062 7.501 192.717 5.888 280.141 0 31.258-1.152 46.592-33.357 48.666-58.931 4.301-53.683 4.301-87.578 0-141.286v0zM512.003 755.203c-169.651 0-307.2-137.549-307.2-307.2s137.549-307.2 307.2-307.2c169.651 0 307.2 137.549 307.2 307.2 0 169.677-137.549 307.2-307.2 307.2v0z" />
<glyph unicode="&#xe907;" glyph-name="check-circle-empty-32" d="M491.551 359.598l162.176 146.458c8.397 7.578 9.037 20.531 1.485 28.928-7.552 8.371-20.531 9.062-28.928 1.459l-150.042-135.475-80.435 56.73c-9.216 6.477-22.016 4.326-28.544-4.941-6.502-9.242-4.301-22.016 4.941-28.544l93.824-66.15c3.558-2.509 7.68-3.738 11.802-3.738 4.941 0 9.856 1.766 13.722 5.274zM512.005 734.715c-158.106 0-286.72-128.614-286.72-286.72s128.614-286.72 286.72-286.72c158.106 0 286.746 128.614 286.746 286.72s-128.64 286.72-286.746 286.72zM512.005 120.315c-180.685 0-327.68 146.995-327.68 327.68s146.995 327.68 327.68 327.68c180.685 0 327.68-146.995 327.68-327.68s-146.995-327.68-327.68-327.68z" />
<glyph unicode="&#xe908;" glyph-name="cool-32" d="M205.763 522.468c3.814 0 7.731 1.075 11.187 3.328l85.043 55.526c4.198 2.739 7.245 6.938 8.576 11.802l22.221 82.15 84.966-4.25c5.12-0.461 9.958 1.331 13.875 4.506l66.253 53.35 66.278-53.35c3.891-3.2 8.755-4.966 13.875-4.506l46.797 2.355c11.315 0.563 19.994 10.163 19.43 21.453-0.589 11.315-10.061 20.096-21.478 19.43l-38.989-1.946-73.062 58.829c-7.501 6.042-18.202 6.042-25.702 0l-73.011-58.829-93.67 4.685c-9.754 0.947-18.253-5.811-20.787-15.104l-24.499-90.547-78.515-51.251c-9.498-6.17-12.134-18.893-5.965-28.365 3.917-5.99 10.47-9.267 17.178-9.267v0zM778.87 370.225l-85.069-55.552c-4.198-2.765-7.245-6.963-8.576-11.802l-22.221-82.125-84.966 4.25c-5.12 0.486-9.984-1.357-13.875-4.506l-66.278-53.402-66.253 53.402c-4.019 3.251-9.318 5.197-14.285 4.48l-71.347-5.069c-11.29-0.819-19.789-10.598-18.995-21.888 0.819-11.315 10.778-19.968 21.888-18.97l63.309 4.506 72.832-58.701c3.763-3.021 8.294-4.531 12.851-4.531s9.114 1.51 12.851 4.531l73.062 58.854 93.645-4.685c10.675-1.075 18.304 5.811 20.787 15.104l24.499 90.522 78.541 51.277c9.472 6.195 12.109 18.867 5.939 28.339-6.144 9.472-18.867 12.134-28.339 5.965v0zM810.383 510.538l-0.358 136.474-40.166-1.587 10.598-136.090 29.926 1.203zM778.486 456.266l38.093 1.536-1.382 34.995-38.118-1.51 1.408-35.021zM650.998 440.113l87.424 14.106-4.762 29.542-52.045-8.371-25.37 157.363-35.328-5.709 30.080-186.931zM551.030 511.485c-13.952 41.754-26.931 59.52-43.674 53.939-16.742-5.606-16.64-27.699-2.662-69.427 13.952-41.754 27.418-60.186 44.134-54.579 16.794 5.606 16.179 28.314 2.202 70.067v0zM585.769 523.108c21.888-65.536 7.142-99.635-27.11-111.027-34.458-11.571-66.509 6.861-88.448 72.397-21.914 65.51-7.475 99.738 27.008 111.283 34.202 11.469 66.586-7.117 88.55-72.653v0zM395.075 447.46c-21.683 38.374-37.837 53.402-53.222 44.723s-11.085-30.387 10.573-68.762c21.658-38.374 38.4-53.965 53.786-45.261 15.386 8.653 10.47 30.925-11.136 69.299v0zM426.947 465.457c33.997-60.237 25.933-96.538-5.504-114.278-31.693-17.92-66.739-5.914-100.71 54.4-33.971 60.186-26.291 96.64 5.402 114.483 31.462 17.766 66.816 5.658 100.813-54.605v0zM301.046 358.474c21.504-32.461 31.283-64.461 2.458-89.011-28.698-24.397-62.848-17.792-107.955 35.226-44.954 52.864-45.747 88.474-17.638 112.384 27.904 23.731 54.246 15.258 86.093-17.818l-23.936-24.448c-21.171 21.35-31.846 26.010-41.421 17.894-13.056-11.085-4.454-30.336 24.602-64.486 29.517-34.662 47.667-46.157 60.518-35.2 9.984 8.448 7.936 19.558-10.829 45.926l28.109 19.533z" />
<glyph unicode="&#xe909;" glyph-name="hey-32" d="M489.549 754.616c-0.256 11.238 8.448 20.736 19.968 20.966 11.29 0.282 20.48-8.704 21.018-19.942 0.23-11.264-8.704-20.762-19.994-20.992h-0.486c-11.29 0-20.224 8.704-20.506 19.968v0zM581.734 727.711v-0.256c-11.008 2.586-17.946 13.594-15.386 24.576 2.33 11.034 13.338 17.946 24.32 15.386 11.034-2.33 17.92-13.338 15.386-24.32-2.048-9.472-10.496-15.872-19.738-15.872-1.51 0-3.072 0-4.582 0.486v0zM414.541 738.207c-3.072 10.752 3.328 22.042 14.080 25.114 11.034 3.072 22.272-3.072 25.344-14.080 3.072-10.752-3.328-22.272-14.054-25.344-2.074-0.538-3.866-0.768-5.632-0.768-8.986 0-17.152 5.888-19.738 15.078v0zM648.806 703.135c-10.010 5.12-14.080 17.434-8.986 27.648 5.376 10.010 17.69 14.106 27.648 8.704 10.010-5.094 14.080-17.408 8.986-27.622-3.866-6.912-11.034-11.034-18.458-11.034-3.072 0-6.118 0.794-9.19 2.304v0zM345.958 703.416c-5.632 9.984-2.304 22.528 7.424 28.16 9.728 5.606 22.272 2.278 28.134-7.424 5.632-9.728 2.304-22.298-7.424-28.16v0.256c-3.328-2.048-6.886-2.842-10.496-2.842-6.886 0-13.824 3.61-17.638 10.010v0zM288.102 652.959c-7.962 8.218-7.706 21.248 0.256 29.21 8.166 7.91 20.966 7.68 29.158-0.282 7.68-8.166 7.68-21.222-0.486-29.158-3.866-3.84-8.986-5.888-14.362-5.888-5.12 0-10.496 2.048-14.566 6.118v0zM244.582 589.983c-9.728 5.914-12.8 18.458-6.938 28.186 5.914 9.728 18.458 12.518 28.186 6.656 9.728-5.914 12.8-18.432 6.886-28.16v0.256c-3.814-6.4-10.752-10.010-17.638-10.010-3.61 0-7.168 1.024-10.496 3.072v0zM217.958 517.816c-11.034 3.328-16.922 14.848-13.594 25.6 3.072 10.752 14.618 16.87 25.37 13.542 10.752-3.072 16.896-14.566 13.824-25.318-2.842-8.986-11.034-14.592-19.738-14.592-2.048 0-3.814 0.23-5.862 0.768v0zM791.91 307.896c-10.266 4.352-15.104 16.358-10.522 26.88 4.352 10.24 16.384 15.078 26.88 10.752 10.266-4.608 15.104-16.64 10.752-27.136-3.328-7.706-11.008-12.314-18.918-12.314-2.816 0-5.376 0.538-8.192 1.818v0zM748.621 244.383c-8.704 6.938-10.496 19.738-3.584 28.672 6.912 8.986 19.712 10.752 28.698 3.866 8.934-6.938 10.752-19.738 3.814-28.672-4.070-5.376-10.214-8.218-16.384-8.218-4.352 0-8.678 1.562-12.544 4.352v0zM691.302 193.464c-7.168 8.96-5.658 21.99 3.328 28.928 8.934 6.886 21.734 5.376 28.928-3.61 6.886-8.934 5.376-21.734-3.61-28.672-3.584-3.046-8.166-4.352-12.518-4.352-6.144 0-12.314 2.586-16.128 7.706v0zM622.925 158.392c-4.608 10.496 0 22.528 10.496 27.136 10.266 4.582 22.528 0 26.906-10.522 4.608-10.214 0-22.272-10.496-26.854v-0.256c-2.586-1.024-5.376-1.562-8.218-1.562-7.654 0-15.334 4.634-18.688 12.058v0zM410.189 138.424c-10.752 3.84-16.358 15.334-12.8 26.086 3.866 10.778 15.36 16.41 26.138 12.544 10.752-3.558 16.384-15.334 12.518-26.086-2.79-8.448-10.752-13.568-19.2-13.568-2.304 0-4.608 0.23-6.656 1.024v0zM548.173 141.496c-2.048 11.238 5.658 21.734 16.64 23.552 11.29 2.048 21.76-5.632 23.808-16.896 1.792-11.008-5.862-21.504-17.152-23.552l0.256 0.23c-1.28-0.23-2.304-0.23-3.584-0.23-9.728 0-18.406 6.886-19.968 16.896v0zM490.086 121.528v0c-11.29 1.024-19.738 10.726-18.714 22.016 1.024 11.52 10.752 19.686 22.016 18.662 11.29-0.742 19.738-10.752 18.714-21.99-0.768-10.752-9.754-18.688-20.224-18.688h-1.792zM714.010 453.893l37.811 4.941 4.506-34.79-37.837-4.915-4.48 34.765zM693.069 606.853l39.859 5.197 12.518-136.013-29.696-3.84-22.682 134.656zM591.386 461.804l-70.195 107.034 35.226 9.088 43.699-73.114 0.768 0.205 2.97 85.12 32.717 8.422-10.24-127.744 17.050-66.253-34.97-8.986-17.024 66.227zM390.272 517.509l81.357 33.664 11.725-28.365-48.205-19.994 17.126-41.37 34.534 14.31 11.059-26.726-34.534-14.285 21.043-50.842 50.355 20.864 11.469-27.674-83.482-34.56-72.448 174.976zM232.064 430.52l30.822 18.355 38.4-64.461 33.434 19.917-38.4 64.461 30.976 18.483 97.024-162.765-31.027-18.458-43.52 72.986-33.434-19.917 43.546-73.011-30.822-18.406-96.998 162.816z" />
<glyph unicode="&#xe90a;" glyph-name="new-32" d="M513.7 149.88c0.819 0.973 84.25 99.405 280.525 102.426 11.29 0.179 20.326 9.472 20.15 20.787-0.182 11.213-9.295 20.173-20.483 20.173h-0.307c-214.989-3.302-307.635-112.691-311.475-117.325-7.219-8.73-5.965-21.632 2.765-28.826 3.789-3.149 8.422-4.685 13.030-4.685 5.888 0 11.75 2.534 15.795 7.45v0zM342.282 150.264c1.587 2.022 162.355 201.728 469.888 211.917 11.315 0.384 20.173 9.856 19.814 21.146-0.41 11.366-10.931 19.866-21.171 19.815-327.398-10.88-493.85-218.752-500.762-227.61-6.989-8.909-5.402-21.76 3.482-28.723 3.738-2.944 8.218-4.378 12.646-4.378 6.042 0 12.058 2.688 16.102 7.834v0zM723.748 498.527l38.016 3.712 3.379-34.97-37.99-3.635-3.405 34.893zM707.953 652.229l40.013 3.84 7.987-136.397-29.798-2.842-18.202 135.398zM478.065 602.386l33.638 8.883 29.466-69.248c7.014-16.435 12.467-28.979 20.659-51.994l0.742 0.154c-3.43 22.938-5.171 37.606-7.040 55.654l-8.397 74.854 28.698 7.578 29.926-68.89c7.45-17.357 13.67-30.848 21.683-51.994l0.742 0.154c-4.070 22.298-5.862 37.146-7.834 54.63l-8.602 75.622 29.67 7.834 16.435-192.154-29.696-7.885-51.942 118.144-0.998-0.205 13.338-128.384-29.696-7.91-80.794 175.155zM341.437 538.642l79.232 38.528 13.466-27.597-46.976-22.886 19.635-40.294 33.613 16.384 12.698-25.984-33.638-16.41 24.141-49.51 49.075 23.91 13.107-26.957-81.254-39.603-83.098 170.419zM187.684 435.935l30.387 22.195 71.91-46.694c13.056-9.165 23.373-15.898 32.358-22.963l0.64 0.41-69.555 95.104 22.938 16.794 111.872-152.96-24.832-18.15-84.685 52.915c-11.955 7.706-26.726 17.894-32.282 22.042l-0.64-0.435 76.493-104.602-22.707-16.614-111.898 152.96z" />
<glyph unicode="&#xe90b;" glyph-name="omg-32" d="M316.124 568.018c8.294 7.68 8.832 20.634 1.152 28.954l-31.027 33.587c-7.706 8.346-20.634 8.781-28.954 1.152-8.294-7.68-8.832-20.608-1.152-28.954l31.027-33.587c4.045-4.378 9.549-6.579 15.053-6.579 4.966 0 9.958 1.792 13.901 5.427v0zM433.807 608.005c10.138 4.992 14.285 17.254 9.267 27.418l-55.936 113.178c-4.966 10.138-17.203 14.336-27.418 9.267-10.138-4.992-14.285-17.28-9.267-27.418l55.91-113.178c3.558-7.219 10.829-11.392 18.381-11.392 3.021 0 6.118 0.666 9.062 2.125v0zM547.267 643.82c11.213 1.536 19.046 11.878 17.536 23.066l-8.73 63.667c-1.536 11.213-12.032 18.97-23.066 17.51-11.213-1.536-19.046-11.878-17.536-23.066l8.73-63.642c1.434-10.291 10.189-17.715 20.275-17.715 0.922 0 1.869 0.051 2.79 0.179v0zM757.11 264.3c8.294 7.68 8.806 20.608 1.152 28.954l-46.72 50.56c-7.68 8.32-20.608 8.755-28.954 1.152-8.294-7.68-8.806-20.634-1.126-28.954l46.694-50.56c4.045-4.378 9.549-6.579 15.053-6.579 4.966 0 9.933 1.792 13.901 5.427v0zM654.684 138.143c10.138 4.992 14.285 17.28 9.267 27.418l-66.662 134.861c-4.992 10.138-17.28 14.31-27.418 9.267-10.138-4.992-14.285-17.28-9.267-27.418l66.637-134.861c3.558-7.219 10.829-11.392 18.381-11.392 3.046 0 6.118 0.666 9.062 2.125v0zM485.699 154.168c11.11 2.253 18.253 13.082 16 24.141l-15.232 74.906c-2.253 11.11-13.030 18.176-24.141 16-11.11-2.253-18.253-13.082-16-24.141l15.232-74.906c1.971-9.728 10.522-16.41 20.045-16.41 1.357 0 2.714 0.128 4.096 0.41v0zM746.614 458.194l38.016 3.61 3.302-34.918-37.99-3.61-3.328 34.918zM731.049 611.82l40.013 3.814 7.808-136.371-29.85-2.816-17.971 135.373zM572.124 485.535c-14.822 64.896-1.331 98.944 36.122 107.469 31.386 7.168 50.765-9.651 67.354-56.013l-30.822-10.982c-9.728 30.054-17.459 38.554-29.44 35.814-14.95-3.43-18.918-20.582-8.115-67.968 10.778-47.13 23.603-63.13 38.835-59.674 13.952 3.2 18.995 15.667 14.362 41.626l-21.197-4.864-6.144 26.957 51.149 11.674 20.762-91.059-23.194-5.274-5.658 22.579-0.256-0.051c-1.562-15.053-11.392-28.314-28.826-32.307-37.939-8.704-60.288 17.997-74.931 82.074v0zM358.518 504.018l39.91 16.794 74.803-114.048 0.947 0.384-29.517 133.171 40.090 16.922 73.677-174.541-29.747-12.544-52.045 123.392-0.717-0.333c5.53-17.664 7.834-31.693 11.29-47.744l18.355-85.069-24.294-10.266-49.254 74.522c-8.678 12.723-18.432 27.264-25.216 39.398l-0.691-0.307 52.070-123.366-25.958-10.931-73.702 174.566zM318.838 372.152c-23.706 37.018-40.653 51.123-55.526 41.574-14.874-9.498-9.344-30.874 14.387-67.994 23.757-37.043 41.293-51.584 56.141-42.086 14.899 9.549 8.755 31.411-15.002 68.506v0zM247.107 326.175c-37.248 58.163-31.667 94.874-1.024 114.458 30.336 19.482 66.304 9.421 103.578-48.768 37.274-58.138 31.309-94.822 0.922-114.304-30.618-19.584-66.176-9.574-103.475 48.614v0z" />
<glyph unicode="&#xe90c;" glyph-name="oops1-32" d="M548.511 639.939l21.069 46.566c2.304 5.069 2.432 10.803 0.41 15.923-1.997 5.171-6.016 9.293-11.136 11.418l-4.71 1.997 15.13 30.259c5.043 10.138 0.947 22.426-9.19 27.494-10.061 5.069-22.4 0.922-27.469-9.19l-24.909-49.843c-2.509-5.069-2.842-10.957-0.87-16.282 1.971-5.299 6.042-9.574 11.29-11.75l5.453-2.304-12.365-27.392c-4.685-10.291-0.102-22.451 10.189-27.085 2.765-1.254 5.632-1.843 8.448-1.843 7.782 0 15.232 4.48 18.662 12.032v0zM449.208 134.185l20.813 60.262c3.584 10.342-1.638 21.683-11.853 25.728l-7.117 2.79 15.36 37.632c4.275 10.47-0.717 22.426-11.213 26.701-10.522 4.352-22.426-0.768-26.675-11.213l-23.219-56.832c-2.074-5.069-2.022-10.778 0.128-15.795s6.221-8.986 11.341-10.982l8.141-3.226-14.413-41.702c-3.686-10.675 1.997-22.349 12.672-26.035 2.202-0.768 4.454-1.126 6.682-1.126 8.499 0 16.435 5.325 19.354 13.798v0zM338.898 564.828c8.55 7.398 9.472 20.326 2.074 28.877l-49.229 56.832c-3.661 4.224-8.909 6.784-14.49 7.040-5.786 0.486-11.008-1.741-15.104-5.581l-6.963-6.63-32.742 55.194c-5.811 9.728-18.355 12.877-28.083 7.168-9.728-5.76-12.928-18.33-7.168-28.058l45.85-77.286c3.2-5.35 8.627-8.96 14.797-9.83 6.298-1.024 12.416 1.126 16.922 5.427l10.061 9.549 35.2-40.627c4.045-4.659 9.728-7.066 15.462-7.066 4.762 0 9.523 1.664 13.414 4.992v0zM828.984 211.702c8.294 7.68 8.832 20.634 1.126 28.928l-79.462 85.939c-4.915 5.325-12.339 7.706-19.405 6.093-7.117-1.536-12.851-6.758-15.104-13.645l-5.683-17.459-39.142 43.034c-7.68 8.397-20.608 8.986-28.928 1.382-8.371-7.629-8.986-20.582-1.382-28.928l62.848-69.094c4.915-5.376 12.339-7.68 19.456-6.246 7.117 1.536 12.902 6.758 15.181 13.696l5.76 17.741 55.808-60.314c4.019-4.352 9.523-6.554 15.027-6.554 4.966 0 9.984 1.792 13.901 5.427v0zM786.898 603.715l40.038-3.149-15.846-135.654-29.85 2.381 5.658 136.422zM775.711 449.705l38.042-2.995-2.765-34.97-38.042 2.995 2.765 34.97zM642.13 467.267l30.899 7.168c5.12-20.736 11.878-32.998 26.701-32.282 12.032 0.64 16.717 9.318 16.256 18.534-1.613 32.461-71.296 43.085-73.856 94.976-1.485 29.901 17.51 49.562 48.435 51.072 31.693 1.587 45.798-18.739 54.758-50.33l-31.283-9.498c-5.325 19.482-11.443 29.414-23.194 28.826-9.216-0.435-14.285-6.605-13.824-16.051 1.613-32.205 71.322-42.88 73.907-95.258 1.408-29.389-18.534-50.611-49.971-52.173-37.325-1.818-50.79 22.349-58.829 55.014v0zM556.728 488.643c16.179 3.968 20.634 13.773 14.746 37.658-5.683 23.117-14.029 29.005-30.438 24.934l-9.958-2.458 15.462-62.669 10.189 2.534zM489.426 570.179l43.29 10.65c30.566 7.552 61.184 2.15 72.883-45.312 12.774-51.763-14.413-68.736-43.776-76.006l-8.243-1.997 15.539-62.899-34.33-8.499-45.363 184.064zM444.831 450.831c-19.507 39.475-34.842 55.322-50.637 47.488-15.846-7.859-12.698-29.696 6.835-69.171 19.558-39.424 35.405-55.885 51.251-48 15.795 7.808 12.109 30.259-7.45 69.683v0zM368.466 413.020c-30.669 61.926-21.018 97.818 11.52 113.946 32.333 16.026 66.944 2.074 97.638-59.853 30.72-61.926 20.762-97.69-11.597-113.741-32.563-16.154-66.893-2.278-97.562 59.648v0zM313.042 371.702c-28.058 33.971-46.566 45.901-60.134 34.637-13.619-11.264-5.581-31.821 22.451-65.715 28.032-33.946 47.258-46.336 60.826-35.072 13.645 11.264 4.89 32.23-23.142 66.15v0zM247.327 317.455c-43.955 53.248-42.829 90.419-14.797 113.562 27.802 22.989 64.717 17.28 108.723-35.968s42.47-90.394 14.669-113.357c-28.006-23.117-64.538-17.485-108.595 35.763v0z" />
<glyph unicode="&#xe90d;" glyph-name="oops2-32" d="M776.41 457.175l29.926-2.15 15.027 135.808-40.141 2.944-4.813-136.602zM768.474 404.618l38.093-2.79 2.534 34.995-38.067 2.765-2.56-34.97zM696.384 401.674c31.462 1.792 51.251 23.168 49.562 52.582-2.995 52.378-72.806 62.49-74.65 94.694-0.538 9.446 4.48 15.616 13.696 16.154 11.75 0.666 17.971-9.267 23.45-28.672l31.206 9.754c-9.216 31.514-23.475 51.712-55.142 49.894-30.925-1.766-49.792-21.555-48.102-51.456 2.97-51.866 72.781-61.978 74.624-94.413 0.563-9.216-4.070-17.946-16.102-18.637-14.797-0.845-21.658 11.315-26.931 32.051l-30.848-7.424c8.243-32.589 21.939-56.678 59.238-54.528v0zM541.99 474.429l-15.872 62.566 9.907 2.509c16.384 4.173 24.704-1.664 30.592-24.73 6.067-23.859 1.664-33.664-14.438-37.76l-10.189-2.586zM530.931 374.41l34.202 8.704-15.923 62.797 8.192 2.074c29.286 7.424 56.371 24.602 43.29 76.211-12.058 47.411-42.701 52.582-73.242 44.826l-43.162-10.957 46.643-183.654zM448.192 368.65c-15.795-7.987-31.77 8.32-51.61 47.642-19.814 39.296-23.117 61.133-7.347 69.094 15.744 7.962 31.155-7.757 50.995-47.053 19.866-39.296 23.706-61.722 7.962-69.683v0zM462.144 341.002c32.179 16.282 41.907 52.147 10.778 113.818-31.181 61.696-65.946 75.392-98.125 59.136-32.461-16.384-41.805-52.378-10.624-114.048 31.155-61.67 65.536-75.29 97.971-58.906v0zM332.659 292.362c-13.517-11.392-32.819 0.845-61.21 34.509-28.314 33.715-36.531 54.246-23.014 65.613 13.491 11.392 32.128-0.41 60.493-34.099 28.314-33.741 37.248-54.656 23.731-66.022v0zM352.576 268.657c27.648 23.219 28.851 60.39-15.642 113.28s-81.51 58.291-109.107 35.046c-27.827-23.424-28.698-60.621 15.821-113.51s81.101-58.214 108.928-34.816v0zM244.8 569.661c201.472 160.998 528.563 78.618 531.891 77.773 10.931-2.842 22.118 3.712 24.96 14.669s-3.712 22.118-14.643 24.96c-14.234 3.712-350.054 88.525-567.757-85.402-8.832-7.066-10.266-19.968-3.226-28.774 4.070-5.094 10.010-7.706 16.026-7.706 4.48 0 8.986 1.434 12.749 4.48v0zM445.811 149.975c-4.019 0-8.090 1.178-11.674 3.686-9.267 6.451-11.571 19.226-5.094 28.493 127.181 182.835 342.349 165.734 351.437 164.813 11.264-1.024 19.533-10.931 18.534-22.195-0.973-11.238-11.008-19.456-22.17-18.586-1.997 0.102-200.858 15.437-314.214-147.43-3.968-5.734-10.342-8.781-16.819-8.781v0z" />
<glyph unicode="&#xe90e;" glyph-name="yeah-32" d="M237.624 530.903c36.941 121.523 147.226 203.187 274.381 203.187 53.478 0 105.626-14.848 150.81-42.829 9.651-6.016 22.272-3.021 28.211 6.579 5.965 9.626 2.995 22.272-6.605 28.211-51.686 32.051-111.334 48.973-172.416 48.973-145.306 0-271.334-93.312-313.574-232.218-3.277-10.803 2.816-22.246 13.645-25.549 1.971-0.614 3.968-0.87 5.939-0.87 8.781 0 16.922 5.658 19.61 14.515v0zM813.087 317.885c4.454 10.394-0.333 22.451-10.701 26.88-10.445 4.557-22.451-0.282-26.906-10.675-45.389-105.395-148.787-173.466-263.475-173.466-40.806 0-80.205 8.397-117.12 24.96-10.342 4.531-22.426 0-27.085-10.342-4.634-10.317 0-22.451 10.317-27.059 42.24-18.893 87.27-28.493 133.888-28.493 131.072 0 249.242 77.798 301.082 198.195v0zM776.607 461.143l38.016 2.406 2.227-34.97-38.016-2.432-2.227 34.995zM765.804 615.076l40.064 2.534 3.558-136.422-29.875-1.894-13.747 135.782zM586.578 586.941l35.149 6.963 14.515-73.6 38.195 7.552-14.541 73.574 35.405 7.014 36.71-185.83-35.405-7.014-16.461 83.354-38.17-7.501 16.435-83.405-35.149-6.938-36.685 185.83zM515.154 454.333c-10.342 17.741-17.869 29.389-30.566 54.195l-0.973-0.384c6.784-27.213 8.294-40.294 11.827-60.262l3.046-17.92 25.677 9.395-9.011 14.976zM509.471 362.25l-29.312-10.778-26.214 192.947 33.638 12.365 104.96-163.994-33.152-12.186-22.298 37.043-34.586-12.698 6.963-42.701zM286.060 463.217l77.466 41.702 14.541-27.034-45.952-24.73 21.248-39.398 32.87 17.715 13.696-25.472-32.87-17.69 26.035-48.435 48 25.805 14.208-26.317-79.539-42.803-89.702 166.656zM246.072 290.621l-104.806 73.395 29.363 21.453 67.635-51.661 0.64 0.384-28.8 80.154 27.264 19.994 37.837-122.445 40.346-55.142-29.133-21.35-40.346 55.219z" />
<glyph unicode="&#xe90f;" glyph-name="account-off-28" d="M780.221 192v22.042c0 24.218-10.189 46.387-27.238 59.341-57.856 43.853-143.437 67.994-240.973 67.994-97.562 0-183.142-24.141-240.998-68.019-17.050-12.928-27.238-35.098-27.238-59.315v-22.042c0.026-11.315 9.19-20.48 20.506-20.48s20.48 9.19 20.48 20.48l-0.026 22.042c0 11.136 4.326 21.606 11.034 26.675 50.765 38.502 127.565 59.699 216.243 59.699 88.653 0 165.453-21.197 216.218-59.674 6.707-5.094 11.034-15.565 11.034-26.701v-22.042c0-11.315 9.165-20.48 20.48-20.48s20.48 9.165 20.48 20.48zM511.754 683.52c-32.179 0-63.078-11.008-88.269-31.667-28.851-23.654-46.746-57.114-50.406-94.208-3.686-37.12 7.322-73.421 30.976-102.246 23.629-28.851 57.088-46.746 94.208-50.432 37.146-3.635 73.421 7.347 102.272 30.976 28.826 23.654 46.72 57.114 50.381 94.208 7.578 76.621-48.563 145.101-125.184 152.678-4.685 0.461-9.344 0.691-13.978 0.691zM512.343 363.315c-6.016 0-12.058 0.307-18.099 0.922-48 4.736-91.29 27.878-121.856 65.178-30.592 37.274-44.826 84.25-40.090 132.25 4.762 48 27.904 91.264 65.203 121.856s84.25 44.877 132.275 40.064c99.072-9.779 171.699-98.381 161.92-197.453-4.762-48-27.904-91.264-65.203-121.856-32.589-26.701-72.576-40.96-114.15-40.96z" />
<glyph unicode="&#xe910;" glyph-name="account-on-28" d="M752.978 273.375c-57.856 43.853-143.437 67.994-240.973 67.994-97.562 0-183.142-24.141-240.973-67.994-17.075-12.928-27.264-35.123-27.264-59.341l0.026-22.042c0-11.315 9.165-20.48 20.48-20.48h495.462c11.315 0 20.48 9.165 20.48 20.48v22.042c0 24.218-10.189 46.413-27.238 59.341zM372.383 429.407c-30.592 37.299-44.826 84.275-40.064 132.25 4.736 48 27.878 91.29 65.178 121.856 37.299 30.592 84.25 44.877 132.275 40.064 99.072-9.779 171.725-98.355 161.92-197.427-4.736-48-27.904-91.29-65.203-121.882-32.589-26.701-72.55-40.934-114.15-40.934-6.016 0-12.058 0.282-18.099 0.896-48 4.736-91.29 27.878-121.856 65.178z" />
<glyph unicode="&#xe911;" glyph-name="cart-off-28" d="M709.693 217.175c-2.893-3.021-6.861-4.71-11.162-4.71h-373.069c-4.301 0-8.269 1.69-11.162 4.71-2.714 2.842-4.122 6.502-3.942 10.778l7.475 353.382h388.326l7.501-353.818c0.154-3.84-1.254-7.501-3.968-10.342v0zM512.010 683.53c36.89 0 67.738-26.368 74.726-61.261h-149.478c6.989 34.893 37.837 61.261 74.752 61.261v0zM747.044 585.559c0 20.25-16.282 36.71-36.275 36.71h-83.072c-7.45 57.498-56.192 102.195-115.686 102.195s-108.262-44.698-115.712-102.195h-83.046c-20.019 0-36.301-16.461-36.301-36.275l-7.526-356.71c-0.64-15.104 4.787-29.466 15.309-40.448 10.547-11.008 25.395-17.306 40.73-17.306h373.069c15.334 0 30.182 6.298 40.73 17.306 10.522 10.982 15.974 25.344 15.334 40.013l-7.552 356.71z" />
<glyph unicode="&#xe912;" glyph-name="home-off-28" d="M606.554 212.475h126.413v286.234c0 2.918-1.434 5.734-4.045 7.91l-206.336 173.056c-6.118 5.12-15.053 5.12-21.171 0l-206.336-173.056c-2.611-2.176-4.045-4.992-4.045-7.91v-286.234h126.413v158.464c0 18.79 15.283 34.074 34.074 34.074h120.96c18.79 0 34.074-15.283 34.074-34.074v-158.464zM738.342 171.515h-138.675c-18.79 0-34.074 15.283-34.074 34.074v158.464h-107.187v-158.464c0-18.79-15.283-34.074-34.074-34.074h-138.675c-19.61 0-35.584 15.949-35.584 35.584v291.61c0 15.027 6.81 29.338 18.662 39.296h0.026l206.336 173.056c21.376 17.92 52.429 17.92 73.805 0l206.336-173.056c11.878-9.958 18.688-24.269 18.688-39.296v-291.61c0-19.635-15.974-35.584-35.584-35.584v0z" />
<glyph unicode="&#xe913;" glyph-name="home-on-28" d="M755.246 537.999l-206.336 173.056c-21.402 17.92-52.429 17.92-73.83 0l-206.336-173.056c-11.853-9.958-18.662-24.269-18.662-39.296v-291.61c0-19.61 15.949-35.558 35.558-35.558h138.701c18.79 0 34.074 15.258 34.074 34.048v158.464h107.187v-158.464c0-18.79 15.283-34.048 34.074-34.048h138.675c19.61 0 35.558 15.949 35.558 35.558v291.61c0 15.027-6.784 29.338-18.662 39.296z" />
<glyph unicode="&#xe914;" glyph-name="products-off-28" d="M400.259 339.203c0-11.29-9.165-20.48-20.48-20.48h-198.682c-11.29 0-20.454 9.19-20.454 20.48s9.165 20.48 20.454 20.48h198.682c11.315 0 20.48-9.19 20.48-20.48zM405.583 601.603c0-11.29-9.165-20.48-20.48-20.48h-204.006c-11.29 0-20.454 9.19-20.454 20.48s9.165 20.48 20.454 20.48h204.006c11.315 0 20.48-9.19 20.48-20.48zM160.643 470.403c0 11.29 9.165 20.48 20.454 20.48h181.606c11.315 0 20.48-9.19 20.48-20.48s-9.165-20.48-20.48-20.48h-181.606c-11.29 0-20.454 9.19-20.454 20.48zM627.587 315.702c-92.723 9.165-160.691 92.083-151.552 184.781 8.627 87.117 82.304 152.397 168.090 152.397 5.53 0 11.11-0.282 16.717-0.819 92.723-9.19 160.717-92.083 151.552-184.806-9.19-92.723-92.006-160.742-184.806-151.552zM883.254 205.007l-100.070 121.754c38.349 33.869 64.538 81.638 69.965 136.448 11.392 115.226-73.088 218.189-188.288 229.606-115.277 11.622-218.189-73.114-229.555-188.288-5.53-55.808 11.008-110.413 46.566-153.779s85.862-70.272 141.696-75.802c6.989-0.691 13.926-1.024 20.813-1.024 38.118 0 74.266 10.522 105.523 28.826l101.683-123.75c4.070-4.915 9.933-7.475 15.846-7.475 4.582 0 9.165 1.536 12.979 4.659 8.755 7.168 10.010 20.096 2.842 28.826z" />
<glyph unicode="&#xe915;" glyph-name="products-on-28" d="M415.621 339.203c0-19.789-16.026-35.84-35.84-35.84h-198.682c-19.789 0-35.84 16.051-35.84 35.84s16.051 35.84 35.84 35.84h198.682c19.814 0 35.84-16.051 35.84-35.84zM145.26 601.603c0 19.789 16.051 35.84 35.84 35.84h204.006c19.814 0 35.84-16.051 35.84-35.84s-16.026-35.84-35.84-35.84h-204.006c-19.789 0-35.84 16.051-35.84 35.84zM145.26 470.403c0 19.789 16.051 35.84 35.84 35.84h181.606c19.814 0 35.84-16.051 35.84-35.84s-16.026-35.84-35.84-35.84h-181.606c-19.789 0-35.84 16.051-35.84 35.84zM629.1 331.011c-84.301 8.32-146.099 83.661-137.754 167.962 7.834 79.206 74.803 138.522 152.781 138.522 5.043 0 10.112-0.205 15.206-0.742 84.301-8.32 146.099-83.686 137.779-167.987-8.346-84.275-83.814-146.253-168.013-137.754zM895.109 214.761l-91.034 110.771c35.2 35.507 59.059 82.662 64.358 136.166 12.211 123.622-78.413 234.189-202.061 246.4-123.827 11.955-234.163-78.464-246.374-202.061-5.914-59.878 11.827-118.502 49.997-165.043 38.17-46.515 92.16-75.418 152.038-81.331 7.501-0.742 14.95-1.101 22.349-1.101 36.326 0 70.989 8.832 101.786 24.55l93.568-113.869c7.091-8.627 17.357-13.082 27.699-13.082 8.013 0 16.077 2.662 22.733 8.141 15.309 12.57 17.51 35.174 4.941 50.458z" />
<glyph unicode="&#xe916;" glyph-name="wishlist-off-28" d="M384.397 654.262c-59.059 0-107.136-50.202-107.136-111.923 0-18.662 6.4-186.163 228.147-314.291 3.994-2.33 9.165-2.304 13.184 0 221.747 128.128 228.147 295.629 228.147 314.291 0 61.722-48.051 111.923-107.136 111.923-58.086 0-107.11-53.402-107.11-86.938 0-11.315-9.165-20.48-20.48-20.48s-20.48 9.165-20.48 20.48c0 33.536-49.024 86.938-107.136 86.938zM512.013 185.347c-9.37 0-18.739 2.406-27.11 7.245-183.475 106.010-248.602 254.694-248.602 349.747 0 84.301 66.432 152.883 148.096 152.883 53.299 0 101.504-31.411 127.616-69.427 26.112 38.016 74.291 69.427 127.59 69.427 81.664 0 148.096-68.582 148.096-152.883 0-95.053-65.126-243.738-248.602-349.773-8.371-4.813-17.741-7.219-27.085-7.219z" />
<glyph unicode="&#xe917;" glyph-name="wishlist-on-28" d="M639.608 695.214c-53.299 0-101.504-31.411-127.616-69.427-26.112 38.016-74.291 69.427-127.59 69.427-81.664 0-148.096-68.582-148.096-152.858 0-95.078 65.101-243.738 248.602-349.773 8.346-4.838 17.715-7.245 27.085-7.245s18.739 2.406 27.085 7.245c183.501 106.035 248.602 254.694 248.602 349.773 0 84.275-66.432 152.858-148.070 152.858z" />
<glyph unicode="&#xe918;" glyph-name="follow" d="M696.328 387.057c-6.4-33.869-22.861-89.677-42.854-110.464l-162.662-0.051c-1.075-0.050-25.011-1.459-46.285 15.002v139.443c31.462 9.267 90.035 43.059 115.149 166.4 0.819 3.379 7.475 21.709 16.922 21.709 4.685 0 7.962-0.922 9.702-2.765 2.918-3.046 3.584-9.498 3.456-12.416-1.741-35.763-8.602-92.826-18.406-107.853-4.096-6.298-4.454-14.336-0.87-20.941 3.584-6.63 10.496-10.726 18.022-10.726h97.638c5.606 0 10.189-4.582 10.189-10.214v-67.123zM327.688 262.257v195.379l75.878 1.408 0.077-10.65c0-0.128-0.077-0.256-0.077-0.384v-165.76c0-2.278 0.589-4.454 1.331-6.579l0.077-11.981-77.286-1.434zM686.139 505.329h-68.173c9.293 36.275 12.109 84.454 12.672 96.026 0.179 2.611 1.459 25.805-14.234 42.752-6.733 7.27-19.123 15.949-39.808 15.949-34.509 0-51.891-33.254-56.858-53.709-18.893-92.595-55.91-122.957-78.029-132.941-5.76 14.694-20.019 25.139-36.736 25.139h-78.72c-21.811 0-39.526-17.715-39.526-39.501v-196.787c0-21.811 17.715-39.526 39.526-39.526h78.72c16.128 0 29.952 9.702 36.096 23.552 20.634-9.421 39.603-10.778 47.462-10.778 2.406 0 3.789 0.102 3.814 0.128h168.832c4.403 0 8.704 1.434 12.211 4.070 42.547 31.642 61.542 130.637 63.565 141.824 0.23 1.203 0.333 2.432 0.333 3.661v68.992c0 28.211-22.938 51.149-51.149 51.149v0z" />
<glyph unicode="&#xe919;" glyph-name="facebook" d="M562.931 440.794h-33.318v-118.758h-49.37v118.758h-23.475v41.971h23.475v27.149c0 19.443 9.242 49.83 49.818 49.83l36.595-0.141v-40.742h-26.56c-4.326 0-10.47-2.163-10.47-11.43v-24.666h37.619l-4.314-41.971zM512 652.8c-112.922 0-204.8-91.866-204.8-204.8 0-112.909 91.878-204.8 204.8-204.8s204.8 91.891 204.8 204.8c0 112.934-91.866 204.8-204.8 204.8v0z" />
<glyph unicode="&#xe91a;" glyph-name="instagram" d="M543.629 447.45c0-17.434-14.182-31.629-31.629-31.629-17.421 0-31.603 14.195-31.603 31.629s14.182 31.616 31.603 31.616c17.446 0 31.629-14.195 31.629-31.616v0zM568.525 490.88c-7.142 0-12.954 5.811-12.954 12.954s5.811 12.954 12.954 12.954c7.142 0 12.954-5.811 12.954-12.954s-5.811-12.954-12.954-12.954v0zM512 392.691c-30.182 0-54.746 24.563-54.746 54.758 0 30.182 24.563 54.746 54.746 54.746 30.208 0 54.771-24.563 54.771-54.746 0-30.195-24.576-54.758-54.771-54.758v0zM564.685 530.611h-105.344c-16.806 0-30.502-13.683-30.502-30.49v-105.344c0-16.819 13.696-30.502 30.502-30.502h105.344c16.806 0 30.49 13.683 30.49 30.502v105.344c0 16.806-13.683 30.49-30.49 30.49v0zM618.304 394.778c0-29.581-24.051-53.632-53.619-53.632h-105.344c-29.581 0-53.632 24.051-53.632 53.632v105.344c0 29.568 24.051 53.619 53.632 53.619h105.344c29.568 0 53.619-24.051 53.619-53.619v-105.344zM512 652.8c-113.101 0-204.8-91.699-204.8-204.8s91.699-204.8 204.8-204.8c113.114 0 204.8 91.699 204.8 204.8s-91.686 204.8-204.8 204.8v0z" />
<glyph unicode="&#xe91b;" glyph-name="spotify" d="M640 422.4c0 56.525-45.875 102.4-102.4 102.4s-102.4-45.875-102.4-102.4c0-56.525 45.875-102.4 102.4-102.4s102.4 45.875 102.4 102.4zM742.4 422.4c0-112.927-91.873-204.8-204.8-204.8s-204.8 91.873-204.8 204.8c0 112.927 91.873 204.8 204.8 204.8 112.94 0 204.8-91.873 204.8-204.8zM521.626 391.27c-12.698 0-25.231-1.884-37.274-5.571-3.768-1.147-5.816-9.011-4.669-12.698 1.147-3.768 5.079-5.816 8.765-4.669 10.65 3.359 21.791 4.997 33.096 4.997 18.76 0 37.437-4.833 53.821-13.844 1.065-0.573 2.212-0.819 3.359-0.819 2.458 0 4.833 1.311 6.144 3.686 1.884 3.441 0.655 11.633-2.621 13.353-18.432 10.158-39.404 15.565-60.621 15.565zM521.544 470.733c-15.729 0-31.457-1.884-46.612-5.652-5.079-1.311-8.11-7.373-6.881-12.37 1.229-5.079 6.308-8.11 11.387-6.881 13.763 3.441 27.935 5.161 42.107 5.161 27.279 0 53.412-6.062 77.66-18.186 1.311-0.655 2.785-0.983 4.178-0.983 3.441 0 6.717 2.867 8.438 6.144 2.294 4.669 0.41 10.322-4.26 12.616-26.87 13.353-55.788 20.152-86.016 20.152zM597.893 400.937c-1.475-2.867-4.342-7.373-7.291-7.373-1.311 0-2.54 0.246-3.768 0.901-20.316 10.568-42.271 15.892-65.372 15.892-12.698 0-25.313-1.638-37.437-4.997-4.424-1.229-8.929 1.393-10.076 5.734-1.147 4.424 1.393 11.878 5.734 13.025 13.599 3.686 27.607 5.571 41.779 5.571 25.313 0 50.545-6.144 72.909-17.777 4.096-1.966 5.652-6.963 3.523-10.977z" />
<glyph unicode="&#xe91c;" glyph-name="twitter" d="M603.366 494.874c0.090-2.022 0.141-4.070 0.141-6.118 0-62.285-47.398-134.093-134.131-134.093-26.624 0-51.392 7.782-72.243 21.158 3.686-0.435 7.437-0.666 11.238-0.666 22.080 0 42.406 7.539 58.547 20.186-20.621 0.371-38.042 14.003-44.045 32.742 2.88-0.55 5.837-0.858 8.87-0.858 4.301 0 8.474 0.563 12.416 1.651-21.555 4.326-37.811 23.36-37.811 46.221 0 0.192 0 0.397 0.013 0.589 6.349-3.52 13.619-5.645 21.338-5.888-12.634 8.435-20.954 22.874-20.954 39.219 0 8.653 2.317 16.755 6.374 23.718 23.232-28.531 57.984-47.283 97.165-49.267-0.819 3.456-1.216 7.040-1.216 10.752 0 26.022 21.094 47.13 47.117 47.13 13.568 0 25.805-5.722 34.419-14.874 10.739 2.112 20.813 6.016 29.939 11.43-3.558-11.008-11.008-20.237-20.749-26.074 9.536 1.139 18.65 3.661 27.072 7.411-6.285-9.434-14.285-17.741-23.501-24.371zM512 652.8c-112.922 0-204.8-91.866-204.8-204.8 0-112.909 91.878-204.8 204.8-204.8 112.934 0 204.8 91.891 204.8 204.8 0 112.934-91.853 204.8-204.8 204.8z" />
<glyph unicode="&#xe91d;" glyph-name="vkontakte" d="M509.021 364.649h16.811c0 0 5.077 0.559 7.673 3.352 2.386 2.566 2.31 7.383 2.31 7.383s-0.329 22.553 10.138 25.874c10.322 3.273 23.575-21.796 37.62-31.437 10.622-7.293 18.693-5.697 18.693-5.697l37.56 0.525c0 0 19.647 1.212 10.331 16.657-0.763 1.261-5.428 11.425-27.928 32.306-23.553 21.855-20.396 18.319 7.974 56.124 17.277 23.023 24.183 37.077 22.025 43.097-2.056 5.735-14.764 4.22-14.764 4.22l-42.289-0.262c0 0-3.137 0.427-5.461-0.963-2.273-1.36-3.732-4.536-3.732-4.536s-6.696-17.815-15.619-32.967c-18.831-31.969-26.362-33.662-29.44-31.673-7.161 4.627-5.372 18.585-5.372 28.504 0 30.983 4.7 43.901-9.153 47.245-4.596 1.109-7.982 1.843-19.739 1.962-15.090 0.153-27.859-0.046-35.091-3.588-4.811-2.356-8.523-7.604-6.261-7.906 2.795-0.372 9.124-1.708 12.48-6.272 4.335-5.896 4.183-19.133 4.183-19.133s2.491-36.472-5.816-41.001c-5.7-3.107-13.52 3.236-30.309 32.241-8.601 14.857-15.097 31.281-15.097 31.281s-1.251 3.069-3.485 4.712c-2.71 1.99-6.496 2.621-6.496 2.621l-40.187-0.262c0 0-6.032-0.169-8.248-2.791-1.972-2.335-0.158-7.158-0.158-7.158s31.46-73.593 67.086-110.679c32.67-34.007 69.76-31.775 69.76-31.775zM307.2 448.329c0.536 113.376 92.048 204.724 204.839 204.471 113.443-0.256 205.366-92.311 204.761-205.052-0.616-113.665-92.948-205.636-205.342-204.538-113.817 1.112-204.787 92.466-204.258 205.119z" />
<glyph unicode="&#xe91e;" glyph-name="wechat-s" d="M583.524 431.946c-8.883-2.125-17.792 3.328-19.917 12.211-2.125 8.858 3.328 17.766 12.186 19.891 35.738 8.602 33.434 34.406 32.64 39.475-0.845 4.966-6.374 27.827-40.525 27.827-37.965 0-40.166-29.542-40.294-32.922l0.435-101.376c-0.051-18.304-13.056-65.434-71.654-65.434-51.814 0-70.502 36.48-73.139 55.757-3.814 20.301 3.123 63.616 57.523 76.672 8.883 2.125 17.792-3.302 19.917-12.186 2.125-8.858-3.328-17.792-12.186-19.917-3.942-0.947-38.118-10.061-32.666-39.296 0.87-5.146 6.4-27.981 40.55-27.981 35.123 0 38.451 24.909 38.63 32.538l-0.435 101.786c0.87 23.066 17.254 65.382 73.318 65.382 51.814 0 70.502-36.454 73.139-55.757 3.814-20.275-3.123-63.59-57.523-76.672zM511.997 652.797c-113.101 0-204.8-91.699-204.8-204.8s91.699-204.8 204.8-204.8c113.126 0 204.8 91.699 204.8 204.8s-91.674 204.8-204.8 204.8z" />
<glyph unicode="&#xe91f;" glyph-name="wechat" d="M512 652.8c112.947 0 204.8-91.87 204.8-204.8 0-112.913-91.87-204.8-204.8-204.8s-204.8 91.887-204.8 204.8c0 112.93 91.87 204.8 204.8 204.8zM660.86 441.967c-29.681 37.287-91.419 46.246-133.516 19.373-47.366-30.236-53.216-86.811-12.276-123.707 21.526-19.397 47.632-27.31 76.772-24.405 9.567 0.953 19.179 6.093 28.322 5.162 9.179-0.934 17.801-7.052 27.2-11.13-0.629 2.432-0.753 4.87-1.836 6.795-5.871 10.429-2.578 16.939 6.572 24.849 31.62 27.334 34.664 70.525 8.762 103.062zM562.212 533.22c-28.799 36.639-82.025 52.015-129.387 36.941-34.699-11.045-60.237-32.234-70.636-67.171-11.24-37.766 3.779-74.449 39.41-98.961 5.549-3.822 6.389-7.089 4.576-12.959-2.465-7.986-3.858-16.289-6.009-25.77 11.725 7.142 21.618 13.548 31.938 19.221 3.109 1.709 7.464 2.137 11.135 1.836 10.627-0.872 21.194-2.413 32.796-3.813-2.642 30.399 7.023 54.921 28.195 74.933 20.955 19.808 46.766 28.575 76.447 30.086-1.686 17.568-8.064 32.422-18.465 45.657zM540.455 429.74c6.265-0.025 11.298-5.139 11.059-11.235-0.227-5.758-5.154-10.321-11.137-10.315-5.941 0.007-10.902 4.649-11.105 10.387-0.216 6.006 4.981 11.191 11.184 11.163zM609.345 429.717c6.178-0.042 11.056-5.101 10.823-11.227-0.218-5.822-4.962-10.246-10.967-10.227-6.208 0.016-11.083 5.035-10.832 11.147 0.237 5.715 5.169 10.346 10.975 10.307zM515.344 512.674c7.452 0.133 13.496-5.551 13.558-12.756 0.071-7.34-5.655-13.023-13.205-13.112-7.53-0.088-13.601 5.535-13.735 12.723-0.13 6.935 6.058 13.012 13.382 13.144zM430.905 512.669c7.296-0.208 13.439-6.431 13.166-13.338-0.276-7.078-6.529-12.648-13.988-12.464-7.524 0.186-13.231 6.012-13.010 13.281 0.218 7.173 6.362 12.735 13.833 12.521z" />
<glyph unicode="&#xe920;" glyph-name="weibo" d="M512 652.8c112.947 0 204.8-91.87 204.8-204.8 0-112.913-91.87-204.8-204.8-204.8s-204.8 91.887-204.8 204.8c0 112.93 91.87 204.8 204.8 204.8zM507.549 498.176c8.481 25.483-0.825 51.327-32.304 43.533-29.015-7.183-50.339-22.772-70.56-42.696-21.197-20.874-42.797-45.378-45.911-77.011-3.62-36.759 19.835-55.206 42.502-67.823 67.584-37.595 175.809-16.805 211.691 32.66 5.036 6.94 10.035 17.807 11.047 25.939 4.229 33.941-21.275 39.636-42.502 51.072 4.644 11.929 7.529 27.375 0 36-17.089 19.575-55.73-0.469-73.963-1.673zM476.943 469.71c41.894 3.393 95.118-11.976 95.208-53.581 0.042-13.477-6.795-25.050-13.595-32.642-18.601-20.797-57.778-34.404-96.919-31.812-33.876 2.23-80.005 21.858-71.409 63.623 3.819 18.572 19.179 30.916 32.304 38.503 16.083 9.295 31.497 14.058 54.411 15.909zM477.238 446.573l-4.547-0.305c-28.877-2.978-56.603-27.618-45.056-58.599 17.257-46.327 111.628-21.259 93.515 32.648-5.427 16.116-23.805 28.496-48.459 25.951zM456.535 410.268c23.95 5.516 21.817-23.911 5.951-27.63-22.179-5.19-26.070 23.003-5.951 27.63zM477.792 411.104c-0.078 8.465 10.975 9.354 11.902 3.345 0.777-5.19-8.059-9.894-11.902-3.345zM662.275 504.037c-3.47 44.191-40.749 77.64-90.124 71.157-6.56-0.86-13.113-0.753-14.45-8.37-2.976-17.273 16.342-11.721 24.66-11.721 29.359 0 59.332-24.023 58.663-58.599-0.241-11.929-9.77-31.746 8.499-30.139 11.192 0.979 14.059 20.98 12.752 37.672zM584.395 535.131l-3.739-0.119c-4.915-0.368-13.607 0.658-13.607-9.212 0-13.293 14.981-5.582 24.654-10.042 4.933-2.278 10.583-10.031 11.053-16.745 0.753-10.902-3.879-20.067 8.505-19.254 7.427 0.486 11.131 11.531 9.349 24.278-2.512 17.979-18.426 32.589-39.954 30.975z" />
<glyph unicode="&#xe921;" glyph-name="youtube" d="M486.405 499.195l76.8-51.2-76.8-51.2v102.4zM637.829 402.145c-1.382-17.050-14.336-38.81-32.435-41.958-57.984-4.506-126.694-3.942-186.752 0-18.739 2.355-31.053 24.934-32.435 41.958-2.918 35.789-2.918 56.166 0 91.955 1.382 17.024 14.003 39.475 32.435 41.523 59.366 4.992 128.461 3.917 186.752 0 20.838-0.768 31.053-22.246 32.435-39.296 2.867-35.789 2.867-58.394 0-94.182v0zM512.005 652.795c-113.101 0-204.8-91.699-204.8-204.8s91.699-204.8 204.8-204.8c113.101 0 204.8 91.699 204.8 204.8 0 113.126-91.699 204.8-204.8 204.8v0z" />
<glyph unicode="&#xe922;" glyph-name="account-off" d="M732.838 249.308v-6.093c0-11.315-9.165-20.48-20.48-20.48s-20.48 9.165-20.48 20.48v6.093c0 7.68-2.816 14.771-7.194 18.099-39.91 30.259-100.454 46.925-170.522 46.925-70.042 0-130.611-16.666-170.496-46.925-4.378-3.328-7.219-10.419-7.219-18.099v-6.093c0-11.315-9.165-20.48-20.48-20.48s-20.454 9.165-20.454 20.48v6.093c0 20.659 8.73 39.603 23.398 50.739 47.002 35.61 116.326 55.219 195.251 55.219 78.95 0 148.275-19.61 195.251-55.219 14.669-11.136 23.424-30.080 23.424-50.739zM407.104 535.311c5.478 55.45 52.378 96.998 106.982 96.998 3.533 0 7.091-0.154 10.675-0.512 59.034-5.862 102.323-58.624 96.486-117.658-2.842-28.595-16.64-54.374-38.861-72.602s-50.15-26.675-78.822-23.885c-28.57 2.842-54.374 16.64-72.602 38.835-18.202 22.221-26.675 50.227-23.859 78.822zM499.546 376.899c4.966-0.486 9.856-0.717 14.72-0.717 75.392 0 140.16 57.37 147.712 133.939 3.917 39.475-7.782 78.106-32.947 108.8-25.165 30.669-60.749 49.715-100.25 53.632-39.501 3.942-78.131-7.808-108.8-32.973s-49.741-60.749-53.632-100.25c-3.917-39.475 7.808-78.131 32.973-108.8 25.139-30.694 60.749-49.741 100.224-53.632z" />
<glyph unicode="&#xe923;" glyph-name="account-on" d="M732.838 243.215c0-11.315-9.165-20.48-20.48-20.48s-385.075 0-396.39 0c-11.315 0-20.454 9.165-20.454 20.48v6.093c0 20.659 8.73 39.603 23.398 50.739 47.002 35.61 116.326 55.219 195.251 55.219 78.95 0 148.275-19.61 195.251-55.219 14.669-11.136 23.424-30.080 23.424-50.739v-6.093zM499.546 376.899c4.966-0.486 9.856-0.717 14.72-0.717 75.392 0 140.16 57.37 147.712 133.939 3.917 39.475-7.782 78.106-32.947 108.8-25.165 30.669-60.749 49.715-100.25 53.632-39.501 3.942-78.131-7.808-108.8-32.973s-49.741-60.749-53.632-100.25c-3.917-39.475 7.808-78.131 32.973-108.8 25.139-30.694 60.749-49.741 100.224-53.632z" />
<glyph unicode="&#xe924;" glyph-name="arrow-circle-empty" d="M493.686 356.708l76.8 76.8c7.987 8.013 7.987 20.966 0 28.979l-76.8 76.8c-7.987 7.962-20.966 7.962-28.979 0-7.987-8.013-7.987-20.992 0-28.979l62.336-62.31-62.336-62.31c-7.987-8.013-7.987-20.992 0-28.979 3.994-3.994 9.242-5.99 14.49-5.99s10.496 1.997 14.49 5.99zM511.99 632.317c-101.632 0-184.32-82.688-184.32-184.32s82.688-184.32 184.32-184.32c101.658 0 184.346 82.688 184.346 184.32s-82.688 184.32-184.346 184.32zM511.99 222.717c-124.211 0-225.254 101.043-225.254 225.28 0 124.211 101.043 225.28 225.254 225.28 124.237 0 225.28-101.069 225.28-225.28 0-124.237-101.043-225.28-225.28-225.28z" />
<glyph unicode="&#xe925;" glyph-name="arrow-circle-full" d="M512 653.883c113.101 0 204.8-91.699 204.8-204.8s-91.699-204.8-204.8-204.8c-113.101 0-204.8 91.699-204.8 204.8s91.699 204.8 204.8 204.8zM485.53 564.892c-8.013 7.962-20.966 7.962-28.979 0-7.987-8.013-7.987-20.992 0-28.979v0l87.936-87.91-87.936-87.91c-7.987-8.013-7.987-20.992 0-28.979 3.994-3.994 9.242-5.99 14.49-5.99s10.496 1.997 14.49 5.99v0l102.4 102.4c7.987 7.987 7.987 20.966 0 28.979v0z" />
<glyph unicode="&#xe926;" glyph-name="arrow-down" d="M337.932 524.796c0 5.248 1.997 10.496 5.99 14.49 7.987 7.987 20.966 7.987 28.979 0l139.11-139.136 139.11 139.136c7.987 7.987 20.966 7.987 28.979 0 7.962-8.013 7.962-20.966 0-28.979l-153.6-153.6c-8.013-7.987-20.992-7.987-28.979 0l-153.6 153.6c-3.994 3.994-5.99 9.242-5.99 14.49z" />
<glyph unicode="&#xe927;" glyph-name="arrow-left" d="M588.803 622.066c5.248 0 10.496-1.997 14.49-5.99 7.987-7.987 7.987-20.966 0-28.979l-139.136-139.11 139.136-139.11c7.987-7.987 7.987-20.966 0-28.979-8.013-7.962-20.966-7.962-28.979 0l-153.6 153.6c-7.987 8.013-7.987 20.992 0 28.979l153.6 153.6c3.994 3.994 9.242 5.99 14.49 5.99z" />
<glyph unicode="&#xe928;" glyph-name="arrow-line-down" d="M343.901 437.686l153.6-153.6c8.013-7.987 20.992-7.987 28.979 0l153.6 153.6c3.994 3.994 5.99 9.242 5.99 14.49s-1.997 10.496-5.99 14.49c-7.987 7.987-20.966 7.987-28.979 0l-119.84-119.839 0.012 250.598c0 10.441-7.813 19.057-17.911 20.32l-2.569 0.16c-10.441 0-19.057-7.813-20.32-17.911l-0.16-2.569-0.012-248.192-117.421 117.433c-7.987 7.987-20.966 7.987-28.979 0-7.962-8.013-7.962-20.966 0-28.979z" />
<glyph unicode="&#xe929;" glyph-name="arrow-line-left" d="M501.686 616.099l-153.6-153.6c-7.987-8.013-7.987-20.992 0-28.979l153.6-153.6c3.994-3.994 9.242-5.99 14.49-5.99s10.496 1.997 14.49 5.99c7.987 7.987 7.987 20.966 0 28.979l-119.839 119.84 250.598-0.012c10.441 0 19.057 7.813 20.32 17.911l0.16 2.569c0 10.441-7.813 19.057-17.911 20.32l-2.569 0.16-248.192 0.012 117.433 117.421c7.987 7.987 7.987 20.966 0 28.979-8.013 7.962-20.966 7.962-28.979 0z" />
<glyph unicode="&#xe92a;" glyph-name="arrow-line-right" d="M522.314 616.099l153.6-153.6c7.987-8.013 7.987-20.992 0-28.979l-153.6-153.6c-3.994-3.994-9.242-5.99-14.49-5.99s-10.496 1.997-14.49 5.99c-7.987 7.987-7.987 20.966 0 28.979l119.839 119.84-250.598-0.012c-10.441 0-19.057 7.813-20.32 17.911l-0.16 2.569c0 11.311 9.169 20.48 20.48 20.48v0l248.192 0.012-117.433 117.421c-7.987 7.987-7.987 20.966 0 28.979 8.013 7.962 20.966 7.962 28.979 0z" />
<glyph unicode="&#xe92b;" glyph-name="arrow-line-up" d="M343.901 458.314l153.6 153.6c8.013 7.987 20.992 7.987 28.979 0l153.6-153.6c3.994-3.994 5.99-9.242 5.99-14.49s-1.997-10.496-5.99-14.49c-7.987-7.987-20.966-7.987-28.979 0l-119.84 119.839 0.012-250.598c0-10.441-7.813-19.057-17.911-20.32l-2.569-0.16c-10.441 0-19.057 7.813-20.32 17.911l-0.16 2.569-0.012 248.192-117.421-117.433c-7.987-7.987-20.966-7.987-28.979 0-7.962 8.013-7.962 20.966 0 28.979z" />
<glyph unicode="&#xe92c;" glyph-name="arrow-right" d="M435.203 273.925c-5.248 0-10.496 1.997-14.49 5.99-7.987 7.987-7.987 20.966 0 28.979l139.136 139.11-139.136 139.11c-7.987 7.987-7.987 20.966 0 28.979 8.013 7.962 20.966 7.962 28.979 0l153.6-153.6c7.987-8.013 7.987-20.992 0-28.979l-153.6-153.6c-3.994-3.994-9.242-5.99-14.49-5.99z" />
<glyph unicode="&#xe92d;" glyph-name="arrow-up" d="M337.932 371.196c0-5.248 1.997-10.496 5.99-14.49 7.987-7.987 20.966-7.987 28.979 0l139.11 139.136 139.11-139.136c7.987-7.987 20.966-7.987 28.979 0 7.962 8.013 7.962 20.966 0 28.979l-153.6 153.6c-8.013 7.987-20.992 7.987-28.979 0l-153.6-153.6c-3.994-3.994-5.99-9.242-5.99-14.49z" />
<glyph unicode="&#xe92e;" glyph-name="cancel" d="M540.979 448l139.11 139.11c7.987 8.013 7.987 20.966 0 28.979-7.987 7.962-20.966 7.962-28.979 0l-139.11-139.11-139.11 139.11c-7.987 7.962-20.966 7.962-28.979 0-7.987-8.013-7.987-20.966 0-28.979l139.11-139.11-139.11-139.11c-7.987-8.013-7.987-20.966 0-28.979 3.994-3.994 9.267-5.99 14.49-5.99 5.248 0 10.496 1.997 14.49 5.99l139.11 139.11 139.11-139.11c3.994-3.994 9.267-5.99 14.49-5.99 5.248 0 10.496 1.997 14.49 5.99 7.987 8.013 7.987 20.966 0 28.979l-139.11 139.11z" />
<glyph unicode="&#xe92f;" glyph-name="cart-off" d="M676.475 255.296c-0.95-0.977-3.012-2.659-6.322-2.659h-316.33c-3.283 0-5.372 1.655-6.322 2.659-1.031 1.085-2.252 2.93-2.143 6.050l6.24 295.357h320.78l6.267-295.819c0.109-2.632-1.112-4.477-2.171-5.589v0zM512.002 643.363c27.268 0 50.14-18.341 57.547-43.248h-115.12c7.434 24.907 30.279 43.248 57.574 43.248v0zM715.599 564.626c0 19.562-15.736 35.488-35.081 35.488h-66.527c-8.194 49.054-50.628 86.632-101.989 86.632s-93.795-37.578-102.016-86.632h-66.5c-19.372 0-35.109-15.926-35.109-35.027l-6.403-302.357c-0.597-14 4.45-27.295 14.19-37.469 9.767-10.174 23.496-16.008 37.659-16.008h316.33c14.19 0 27.919 5.833 37.659 16.008 9.767 10.174 14.787 23.469 14.217 37.008l-6.43 302.357z" />
<glyph unicode="&#xe930;" glyph-name="cart-on-cropped" d="M531.116 556.704h-179.518l-6.24-295.357c-0.109-3.12 1.112-4.965 2.143-6.050 0.95-1.004 3.039-2.659 6.322-2.659h316.33c3.31 0 5.372 1.682 6.322 2.659 1.058 1.112 2.279 2.957 2.171 5.589l-3.023 142.67c13.976-5.213 28.573-9.151 43.65-11.674l2.756-129.612c0.57-13.539-4.45-26.833-14.217-37.008-9.74-10.174-23.469-16.008-37.659-16.008h-316.33c-14.163 0-27.892 5.833-37.659 16.008-9.74 10.174-14.787 23.469-14.19 37.469l6.403 302.357c0 19.101 15.736 35.027 35.109 35.027h66.5c8.221 49.054 50.655 86.632 102.016 86.632 5.405 0 10.712-0.416 15.89-1.218-3.505-13.844-5.798-28.172-6.76-42.862-2.976 0.459-6.025 0.697-9.131 0.697-27.295 0-50.14-18.341-57.574-43.248h67.674c1.668-14.931 4.716-29.445 9.014-43.411z" />
<glyph unicode="&#xe931;" glyph-name="cart-on" d="M512.002 643.363c27.268 0 50.14-18.341 57.547-43.248h-115.12c7.434 24.907 30.279 43.248 57.574 43.248v0zM715.599 564.626c0 19.562-15.736 35.488-35.081 35.488h-66.527c-8.194 49.054-50.628 86.632-101.989 86.632s-93.795-37.578-102.016-86.632h-66.5c-19.372 0-35.109-15.926-35.109-35.027l-6.403-302.357c-0.597-14 4.45-27.295 14.19-37.469 9.767-10.174 23.496-16.008 37.659-16.008h316.33c14.19 0 27.919 5.833 37.659 16.008 9.767 10.174 14.787 23.469 14.217 37.008l-6.43 302.357z" />
<glyph unicode="&#xe932;" glyph-name="close-circle-empty" d="M603.29 511.57l-62.31-62.31 62.31-62.31c7.987-8.013 7.987-20.966 0-28.979-3.994-3.994-9.242-5.99-14.49-5.99s-10.496 1.997-14.49 5.99l-62.31 62.31-62.31-62.31c-3.994-3.994-9.242-5.99-14.49-5.99s-10.496 1.997-14.49 5.99c-7.987 8.013-7.987 20.966 0 28.979l62.31 62.31-62.31 62.31c-7.987 7.987-7.987 20.966 0 28.979 8.013 7.962 20.992 7.962 28.979 0l62.31-62.31 62.31 62.31c8.013 7.962 20.992 7.962 28.979 0 7.987-8.013 7.987-20.992 0-28.979zM512 264.94c-101.632 0-184.32 82.688-184.32 184.32s82.688 184.32 184.32 184.32c101.632 0 184.32-82.688 184.32-184.32s-82.688-184.32-184.32-184.32zM512 674.54c-124.211 0-225.28-101.069-225.28-225.28 0-124.237 101.069-225.28 225.28-225.28 124.237 0 225.28 101.043 225.28 225.28 0 124.211-101.043 225.28-225.28 225.28z" />
<glyph unicode="&#xe933;" glyph-name="home-off" d="M327.931 507.446v0zM591.739 263.683h92.954v224.896c0 1.075-0.666 2.227-1.766 3.174l-165.094 138.445c-3.379 2.842-8.32 2.816-11.674 0l-165.069-138.445c-1.126-0.947-1.766-2.099-1.766-3.174v-224.896h92.954v122.675c0 17.28 14.054 31.334 31.334 31.334h96.768c17.28 0 31.36-14.054 31.36-31.334v-122.675zM693.089 222.723h-110.95c-17.306 0-31.36 14.054-31.36 31.36v122.675h-77.568v-122.675c0-17.306-14.054-31.36-31.334-31.36h-110.95c-17.946 0-32.563 14.592-32.563 32.538v233.318c0 13.21 5.99 25.805 16.41 34.56l165.069 138.445c18.637 15.642 45.67 15.642 64.333 0l165.069-138.445c10.419-8.755 16.384-21.35 16.384-34.56v-233.318c0-17.946-14.592-32.538-32.538-32.538v0z" />
<glyph unicode="&#xe934;" glyph-name="home-on" d="M327.931 507.446v0zM693.089 222.723h-110.95c-17.306 0-31.36 14.054-31.36 31.36v122.675h-77.568v-122.675c0-17.306-14.054-31.36-31.334-31.36h-110.95c-17.946 0-32.563 14.592-32.563 32.538v233.318c0 13.21 5.99 25.805 16.41 34.56l165.069 138.445c18.637 15.642 45.67 15.642 64.333 0l165.069-138.445c10.419-8.755 16.384-21.35 16.384-34.56v-233.318c0-17.946-14.592-32.538-32.538-32.538v0z" />
<glyph unicode="&#xe935;" glyph-name="menu" d="M683.71 340.48c11.311 0 20.48-9.169 20.48-20.48s-9.169-20.48-20.48-20.48v0h-343.42c-11.311 0-20.48 9.169-20.48 20.48s9.169 20.48 20.48 20.48v0zM683.71 468.48c11.311 0 20.48-9.169 20.48-20.48s-9.169-20.48-20.48-20.48v0h-343.42c-11.311 0-20.48 9.169-20.48 20.48s9.169 20.48 20.48 20.48v0zM683.71 596.48c11.311 0 20.48-9.169 20.48-20.48s-9.169-20.48-20.48-20.48v0h-343.42c-11.311 0-20.48 9.169-20.48 20.48s9.169 20.48 20.48 20.48v0z" />
<glyph unicode="&#xe936;" glyph-name="products-off" d="M615.708 677.568c101.488 0 183.76-82.272 183.76-183.76 0-52.954-22.399-100.676-58.239-134.21l85.224-107.998c7.007-8.879 5.488-21.757-3.391-28.764s-21.757-5.488-28.764 3.391v0l-85.912 108.869c-27.208-15.922-58.878-25.048-92.678-25.048-101.488 0-183.76 82.272-183.76 183.76s82.272 183.76 183.76 183.76zM384.863 387.043c11.311 0 20.48-9.169 20.48-20.48s-9.169-20.48-20.48-20.48v0h-171.241c-11.311 0-20.48 9.169-20.48 20.48s9.169 20.48 20.48 20.48v0zM615.708 636.608c-78.866 0-142.8-63.934-142.8-142.8s63.934-142.8 142.8-142.8c78.866 0 142.8 63.934 142.8 142.8s-63.934 142.8-142.8 142.8zM384.863 501.032c11.311 0 20.48-9.169 20.48-20.48s-9.169-20.48-20.48-20.48v0h-171.241c-11.311 0-20.48 9.169-20.48 20.48s9.169 20.48 20.48 20.48v0zM384.863 615.020c11.311 0 20.48-9.169 20.48-20.48s-9.169-20.48-20.48-20.48v0h-171.241c-11.311 0-20.48 9.169-20.48 20.48s9.169 20.48 20.48 20.48v0z" />
<glyph unicode="&#xe937;" glyph-name="products-on" d="M615.708 685.248c105.729 0 191.44-85.711 191.44-191.44 0-52.623-21.233-100.288-55.598-134.893l80.933-102.557c9.634-12.209 7.546-29.916-4.663-39.55s-29.916-7.546-39.55 4.663v0l-81.829 103.723c-27.003-14.561-57.902-22.824-90.732-22.824-105.729 0-191.44 85.711-191.44 191.44s85.711 191.44 191.44 191.44zM384.863 394.724c15.552 0 28.16-12.608 28.16-28.16s-12.608-28.16-28.16-28.16v0h-171.241c-15.552 0-28.16 12.608-28.16 28.16s12.608 28.16 28.16 28.16v0zM615.708 628.928c-74.625 0-135.12-60.495-135.12-135.12s60.495-135.12 135.12-135.12c74.625 0 135.12 60.495 135.12 135.12s-60.495 135.12-135.12 135.12zM373.878 508.712c15.552 0 28.16-12.608 28.16-28.16s-12.608-28.16-28.16-28.16v0h-160.256c-15.552 0-28.16 12.608-28.16 28.16s12.608 28.16 28.16 28.16v0zM384.863 622.7c15.552 0 28.16-12.608 28.16-28.16s-12.608-28.16-28.16-28.16v0h-171.241c-15.552 0-28.16 12.608-28.16 28.16s12.608 28.16 28.16 28.16v0z" />
<glyph unicode="&#xe938;" glyph-name="wishlist-off" d="M409.595 607.209c-45.184 0-81.92-38.477-81.92-85.76 0-14.899 5.171-148.685 184.269-250.547 179.2 101.862 184.371 235.622 184.371 250.547 0 47.283-36.736 85.76-81.92 85.76-46.49 0-81.92-43.802-81.92-65.715 0-11.315-9.165-20.48-20.48-20.48s-20.48 9.165-20.48 20.48c0 21.914-35.43 65.715-81.92 65.715zM511.995 229.967c-7.014-0.025-14.029 1.767-20.301 5.325-151.296 86.042-204.979 207.949-204.979 286.157 0 69.862 55.117 126.72 122.88 126.72 41.958 0 80.102-23.578 102.4-53.069 22.298 29.491 60.442 53.069 102.4 53.069 67.763 0 122.88-56.858 122.88-126.72 0-78.234-53.683-200.115-204.954-286.157-6.272-3.558-13.312-5.325-20.326-5.325z" />
<glyph unicode="&#xe939;" glyph-name="wishlist-on" d="M511.995 229.967c-7.014-0.025-14.029 1.767-20.301 5.325-151.296 86.042-204.979 207.949-204.979 286.157 0 69.862 55.117 126.72 122.88 126.72 41.958 0 80.102-23.578 102.4-53.069 22.298 29.491 60.442 53.069 102.4 53.069 67.763 0 122.88-56.858 122.88-126.72 0-78.234-53.683-200.115-204.954-286.157-6.272-3.558-13.312-5.325-20.326-5.325z" />
<glyph unicode="&#xe93a;" glyph-name="check-circle-empty" d="M498.388 380.416l129.741 117.171c8.397 7.578 9.037 20.531 1.459 28.928-7.552 8.371-20.506 9.037-28.902 1.459l-117.606-106.189-61.67 43.494c-9.242 6.477-22.016 4.301-28.544-4.941-6.502-9.242-4.326-22.016 4.941-28.544l75.059-52.915c3.558-2.509 7.68-3.738 11.802-3.738 4.941 0 9.856 1.766 13.722 5.274zM512.008 633.6c-101.632 0-184.32-82.688-184.32-184.346 0-101.632 82.688-184.32 184.32-184.32s184.32 82.688 184.32 184.32c0 101.658-82.688 184.346-184.32 184.346zM512.008 224c-124.237 0-225.28 101.043-225.28 225.254 0 124.237 101.043 225.28 225.28 225.28 124.211 0 225.28-101.043 225.28-225.28 0-124.211-101.069-225.254-225.28-225.254z" />
<glyph unicode="&#xe93b;" glyph-name="check-circle-full" d="M614.497 476.918l-106.138-95.846c-4.838-4.378-10.982-6.579-17.152-6.579-5.146 0-10.317 1.536-14.746 4.659l-61.389 43.315c-11.571 8.141-14.336 24.115-6.17 35.661s24.141 14.31 35.661 6.17l44.672-31.514 90.931 82.125c10.547 9.498 26.726 8.627 36.173-1.818 9.472-10.522 8.653-26.701-1.843-36.173zM511.995 652.815c-113.101 0-204.8-91.699-204.8-204.8 0-113.126 91.699-204.8 204.8-204.8 113.126 0 204.8 91.674 204.8 204.8 0 113.101-91.674 204.8-204.8 204.8z" />
<glyph unicode="&#xe93c;" glyph-name="check" d="M498.388 380.416l129.741 117.171c8.397 7.578 9.037 20.531 1.459 28.928-7.552 8.371-20.506 9.037-28.902 1.459l-117.606-106.189-61.67 43.494c-9.242 6.477-22.016 4.301-28.544-4.941-6.502-9.242-4.326-22.016 4.941-28.544l75.059-52.915c3.558-2.509 7.68-3.738 11.802-3.738 4.941 0 9.856 1.766 13.722 5.274z" />
<glyph unicode="&#xe93d;" glyph-name="checked-cart-empty" d="M513.262 673.262c46.73 0 85.629-32.969 95.28-76.824l0.951-4.917h62.771c17.112 0 31.232-13.208 32.93-30.067l0.171-3.418 6.067-285.286c0.538-12.774-4.198-25.318-13.414-34.918-8.169-8.533-19.312-13.83-31.091-14.902l-4.442-0.202h-298.47c-13.363 0-26.317 5.504-35.533 15.104-8.169 8.533-12.839 19.393-13.381 30.978l-0.008 4.375 6.042 285.286c0 16.896 13.050 31.16 29.742 32.876l3.384 0.173h62.746c7.757 46.285 47.795 81.741 96.256 81.741zM664.584 550.561h-302.669l-5.888-278.682c-0.102-2.944 1.050-4.685 2.022-5.709 0.717-0.758 2.122-1.909 4.241-2.339l1.724-0.17h298.47c3.123 0 5.069 1.587 5.965 2.509 0.749 0.787 1.584 1.963 1.912 3.55l0.136 1.724-5.914 279.117zM616.34 487.491c9.472-10.522 8.653-26.701-1.843-36.173l-106.138-95.846c-4.838-4.378-10.982-6.579-17.152-6.579-5.146 0-10.317 1.536-14.746 4.659l-61.389 43.315c-11.571 8.141-14.336 24.115-6.17 35.661s24.141 14.31 35.661 6.17l44.672-31.514 90.931 82.125c10.547 9.498 26.726 8.627 36.173-1.818zM513.262 632.328c-24.239 0-44.758-15.33-52.937-36.726l-1.387-4.081h108.621c-6.989 23.501-28.57 40.806-54.298 40.806z" />
<glyph unicode="&#xe93e;" glyph-name="checked-cart-full" d="M513.249 632.32c25.754 0 47.309-17.306 54.323-40.806h-108.621c6.989 23.501 28.57 40.806 54.298 40.806v0zM705.377 558.054c0 18.458-14.848 33.459-33.126 33.459h-62.771c-7.731 46.285-47.77 81.766-96.23 81.766-48.435 0-88.499-35.482-96.23-81.766h-62.771c-18.253 0-33.126-15.002-33.126-33.024l-6.016-285.286c-0.563-13.21 4.198-25.779 13.389-35.379s22.144-15.104 35.533-15.104h298.445c13.389 0 26.342 5.504 35.558 15.104 9.19 9.6 13.952 22.17 13.389 34.944l-6.042 285.286zM614.497 451.318l-106.138-95.846c-4.838-4.378-10.982-6.579-17.152-6.579-5.146 0-10.317 1.536-14.746 4.659l-61.389 43.315c-11.571 8.141-14.336 24.115-6.17 35.661s24.141 14.31 35.661 6.17l44.672-31.514 90.931 82.125c10.547 9.498 26.726 8.627 36.173-1.818 9.472-10.522 8.653-26.701-1.843-36.173z" />
<glyph unicode="&#xe93f;" glyph-name="danger" d="M510.92 632.108l-182.938-349.133 367.104-1.997-181.734 351.13h-2.432zM512.148 673.784c15.795 0 30.157-8.678 37.478-22.682l182.963-349.107c6.938-13.261 6.451-28.8-1.306-41.574-7.731-12.774-21.248-20.403-36.198-20.403h-365.901c-14.95 0-28.493 7.629-36.224 20.403-7.731 12.8-8.192 28.339-1.254 41.574l182.938 349.133c7.347 13.978 21.709 22.656 37.478 22.656h0.026zM511.846 359.374c-11.975 0-21.683-9.708-21.683-21.683s9.708-21.683 21.683-21.683c11.975 0 21.683 9.708 21.683 21.683s-9.708 21.683-21.683 21.683zM511.846 526.462c-11.137 0-20.166-11.002-20.166-24.573v0-98.591c0-13.571 9.029-24.573 20.166-24.573s20.166 11.002 20.166 24.573v0 98.591c0 13.571-9.029 24.573-20.166 24.573z" />
<glyph unicode="&#xe940;" glyph-name="info-circle-empty" d="M511.846 511.026c11.975 0 21.683 9.708 21.683 21.683s-9.708 21.683-21.683 21.683c-11.975 0-21.683-9.708-21.683-21.683s9.708-21.683 21.683-21.683zM511.846 343.938c11.137 0 20.166 11.002 20.166 24.573v98.591c0 13.571-9.029 24.573-20.166 24.573s-20.166-11.002-20.166-24.573v-98.591c0-13.571 9.029-24.573 20.166-24.573zM512.003 263.68c-101.632 0-184.32 82.688-184.32 184.32s82.688 184.32 184.32 184.32c101.632 0 184.32-82.688 184.32-184.32s-82.688-184.32-184.32-184.32v0zM512.003 673.28c-124.237 0-225.28-101.043-225.28-225.28 0-124.211 101.043-225.28 225.28-225.28 124.211 0 225.28 101.069 225.28 225.28 0 124.237-101.069 225.28-225.28 225.28v0z" />
<glyph unicode="&#xe941;" glyph-name="question-circle-empty" d="M506.369 389.172c11.975 0 21.683-9.708 21.683-21.683s-9.708-21.683-21.683-21.683c-11.975 0-21.683 9.708-21.683 21.683s9.708 21.683 21.683 21.683zM510.743 555.571c13.517 0 25.523-2.202 36.045-6.605 10.496-4.429 18.611-10.394 24.346-17.894s8.602-15.77 8.602-24.781c0-6.938-1.331-13.184-3.942-18.714-2.637-5.555-5.837-10.291-9.574-14.234-3.763-3.942-8.73-8.627-14.925-14.080-9.011-7.885-15.795-14.925-20.275-21.12-4.506-6.195-6.758-13.798-6.758-22.81 0-1.51-0.589-2.765-1.69-3.789-1.126-1.050-2.458-1.562-3.968-1.562h-23.066c-3.942 0-5.939 2.15-5.939 6.477 0 8.627 1.382 16.435 4.096 23.373 2.714 6.963 6.016 12.826 9.856 17.613 3.866 4.787 8.781 10.163 14.771 16.179 6.579 6.758 11.315 12.237 14.234 16.461 2.893 4.224 4.352 8.883 4.352 13.952 0 6.579-2.483 11.878-7.45 15.898-4.966 4.045-11.29 6.067-18.995 6.067-7.526 0-14.541-2.099-21.12-6.323s-11.29-9.933-14.080-17.050c-0.742-1.51-1.536-2.406-2.253-2.662-0.768-0.307-1.971-0.358-3.686-0.154l-28.134 6.758c-1.715 0.563-2.56 1.792-2.56 3.661 0 1.126 0.102 1.971 0.307 2.534 5.99 13.901 15.206 24.499 27.571 31.821 12.39 7.322 27.162 10.982 44.237 10.982zM511.997 263.68c-101.632 0-184.32 82.688-184.32 184.32 0 101.658 82.688 184.346 184.32 184.346s184.32-82.688 184.32-184.346c0-101.632-82.688-184.32-184.32-184.32zM511.997 673.28c-124.237 0-225.28-101.043-225.28-225.28 0-124.211 101.043-225.254 225.28-225.254 124.211 0 225.28 101.043 225.28 225.254 0 124.237-101.069 225.28-225.28 225.28z" />
<glyph unicode="&#xe942;" glyph-name="whatsapp" d="M605.11 417.439c-0.799 0.381-30.659 15.086-35.965 16.996-2.166 0.778-4.488 1.539-6.956 1.539-4.032 0-7.419-2.010-10.058-5.957-2.982-4.434-12.012-14.989-14.802-18.143-0.364-0.415-0.863-0.914-1.16-0.914-0.266 0-4.89 1.905-6.287 2.511-32.033 13.914-56.346 47.375-59.681 53.018-0.476 0.812-0.497 1.18-0.499 1.18 0.118 0.43 1.193 1.51 1.751 2.066 1.626 1.61 3.387 3.73 5.092 5.783 0.806 0.973 1.615 1.946 2.409 2.862 2.476 2.88 3.576 5.112 4.854 7.7l0.668 1.344c3.116 6.195 0.453 11.42-0.407 13.107-0.704 1.413-13.315 31.844-14.653 35.041-3.226 7.713-7.483 11.305-13.404 11.305-0.548 0 0 0-2.301-0.097-2.806-0.118-18.079-2.127-24.832-6.385-7.163-4.516-19.277-18.908-19.277-44.216 0-22.781 14.456-44.288 20.662-52.47 0.154-0.205 0.438-0.625 0.85-1.224 23.767-34.714 53.399-60.439 83.436-72.438 28.918-11.551 42.614-12.887 50.399-12.887 0 0 0 0 0 0 3.272 0 5.891 0.256 8.2 0.484l1.467 0.141c9.989 0.886 31.944 12.26 36.936 26.138 3.935 10.931 4.972 22.874 2.355 27.208-1.792 2.947-4.882 4.429-8.794 6.308zM374.991 352.461l-11.581-60.892 64.315 12.342 11.497-5.601c21.939-10.693 46.602-16.709 72.778-16.709 91.901 0 166.4 74.499 166.4 166.4s-74.499 166.4-166.4 166.4c-91.901 0-166.4-74.499-166.4-166.4 0-30.372 8.102-58.737 22.239-83.172l7.153-12.367zM315.123 243.2l19.476 102.4c-17.426 30.124-27.4 65.098-27.4 102.4 0 113.108 91.692 204.8 204.8 204.8s204.8-91.692 204.8-204.8c0-113.108-91.692-204.8-204.8-204.8-32.133 0-62.536 7.401-89.6 20.588l-107.277-20.588z" />
<glyph unicode="&#xe943;" glyph-name="address-book" d="M400.662 535.68c0 22.234-18.086 40.32-40.342 40.32-22.234 0-40.32-18.086-40.32-40.32s18.086-40.32 40.32-40.32c22.256 0 40.342 18.086 40.342 40.32zM354.909 535.68c0-5.955 10.845-5.955 10.845 0 0 2.989-2.445 5.411-5.434 5.411-2.966 0-5.411-2.422-5.411-5.411zM400.662 432.829c0 22.234-18.086 40.32-40.342 40.32-22.234 0-40.32-18.086-40.32-40.32s18.086-40.32 40.32-40.32c22.256 0 40.342 18.086 40.342 40.32zM354.909 432.829c0-5.978 10.845-5.978 10.845 0 0 2.989-2.445 5.411-5.434 5.411-2.966 0-5.411-2.422-5.411-5.411zM400.662 329.978c0 22.234-18.086 40.32-40.342 40.32-22.234 0-40.32-18.086-40.32-40.32s18.086-40.32 40.32-40.32c22.256 0 40.342 18.086 40.342 40.32zM365.754 329.978c0-5.955-10.845-5.955-10.845 0 0 2.989 2.445 5.434 5.411 5.434 2.989 0 5.434-2.445 5.434-5.434zM686.544 450.285c9.645 0 17.456-7.811 17.456-17.456s-7.811-17.453-17.456-17.453h-234.304c-9.645 0-17.434 7.808-17.434 17.453s7.789 17.456 17.434 17.456h234.304zM704 535.68c0 9.645-7.811 17.453-17.456 17.453h-234.304c-9.645 0-17.434-7.808-17.434-17.453s7.789-17.456 17.434-17.456h234.304c9.645 0 17.456 7.811 17.456 17.456zM452.24 312.525h234.304c9.645 0 17.456 7.808 17.456 17.453s-7.811 17.456-17.456 17.456h-234.304c-9.645 0-17.434-7.811-17.434-17.456s7.789-17.453 17.434-17.453z" />
<glyph unicode="&#xe944;" glyph-name="triman" d="M493.002 704.001c69.155 0 131.48-30.652 174.839-79.425l-21.242-22.155c-37.874 43.248-92.695 70.49-153.597 70.49-114.024 0-206.785-95.445-206.785-212.77 0-51.709 18.038-99.156 47.964-136.074l34.747 175.317c6.294 30.936 34.479 54.674 62.956 49.188 20.877-4.028 118.853-70.81 118.853-70.81 8.301-5.472 3.647-12.886 3.647-12.886s-3.938-7.1-12.199-3.442l-71.855 29.705c-12.771 5.576-33.461-0.367-30.372-37.631l22.499-197.428 0.975-6.478c9.668-1.429 19.528-2.223 29.569-2.223 6.397 0 12.694 0.423 18.941 1.018l-1.829 25.712 48.516-38.077-43.342-43.144-1.588 24.49c-6.829-0.633-13.706-1.086-20.699-1.086-130.681 0-237.001 109.399-237.001 243.848 0 134.467 106.321 243.86 237.001 243.86v0zM359.672 297.703c21.866-19.036 47.613-33.455 75.825-41.883l-33.841 122.176c-2.301 8.793-6.455 7.875-6.455 7.875s-4.628 0.55-7.712-8.168l-27.818-79.999zM443.522 558.702c19.991 0 36.194 16.65 36.194 37.225 0 20.572-16.203 37.24-36.194 37.24-19.985 0-36.194-16.668-36.194-37.24 0-20.575 16.209-37.225 36.194-37.225v0zM710.3 534.727l23.845-1.421-52.9 73.506-63.287-65.421 23.564-1.077c0.5-2.711 3.141-20.258-5.851-47.98-10.036-30.927-41-67.264-80.088-60.833 54.934-23.679 99.446 5.147 113.417 16.816 8.109 6.763 34.232 28.172 40.301 72.76l0.998 13.649zM554.384 431.034c10.28-60.36 57.905-83.349 74.994-89.141 9.909-3.353 41.527-14.437 81.293 4.374l11.465 6.387 11.718-21.507 31.744 85.412-87.63 19.702 11.652-20.743 0.106-0.225c-2.18-2.095-15.121-13.649-42.335-20.749-30.711-8.011-77.168-0.811-93.009 36.491v0zM554.784 432.478c-22.22-33.685-3.342-77.954 19.629-100.411 20.903-20.427 37.69-25.26 39.893-25.828l10.66 21.042 30.841-86.676-87.106-18.225 11.566 22.081-11.773 6.807c-36.677 24.552-44.438 57.971-46.975 68.398-4.358 17.95-10.873 71.653 33.266 112.812v0z" />
<glyph unicode="&#xe945;" glyph-name="cool" d="M331.090 476.163c7.962 2.995 11.93 11.878 8.909 19.789l-3.584 9.446 46.515 30.362c3.149 2.048 5.453 5.197 6.426 8.832l14.541 53.658 55.475-2.79c4.122 0.23 7.475 1.024 10.394 3.405l43.264 34.842 43.29-34.842c2.918-2.406 6.579-3.226 10.368-3.405l31.309 1.562c8.474 0.41 15.002 7.629 14.592 16.102-0.435 8.499-8.397 14.848-16.102 14.592l-25.472-1.28-48.358 38.963c-5.581 4.531-13.645 4.531-19.251 0l-48.333-38.963-62.003 3.098c-7.654-0.282-13.696-4.403-15.59-11.315l-16.23-59.93-51.994-33.946c-6.042-3.917-8.525-11.546-5.939-18.304l7.987-20.966c2.304-6.17 8.141-9.933 14.336-9.933 1.818 0 3.661 0.333 5.453 1.024v0zM522.655 230.607l48.358 38.963 62.003-3.123c7.654 0.282 13.696 4.378 15.59 11.315l16.23 59.955 51.968 33.946c6.067 3.942 8.525 11.571 5.965 18.33l-8.090 21.171c-3.021 7.936-11.955 11.955-19.814 8.883-7.936-3.046-11.904-11.904-8.883-19.84l3.686-9.6-46.541-30.387c-3.149-2.048-5.427-5.197-6.426-8.832l-14.515-53.658-55.475 2.816c-4.224 0.026-7.501-1.024-10.394-3.405l-43.29-34.842-43.264 34.842c-2.918 2.381-6.246 3.379-10.394 3.405l-54.912-2.765c-8.474-0.41-15.002-7.654-14.566-16.128 0.435-8.499 7.347-14.131 16.128-14.566l49.050 2.483 48.333-38.963c2.816-2.278 6.246-3.405 9.626-3.405 3.405 0 6.835 1.126 9.626 3.405v0zM716.805 476.982l32.256 0.154 0.102-28.16-32.282-0.102-0.077 28.109zM715.269 581.481l34.406 0.154-3.712-94.822-26.163-0.128-4.531 94.797zM607.391 569.756l30.464 4.531 15.846-106.163 34.765 5.171 3.738-25.011-65.229-9.728-19.584 131.2zM553.989 487.273c-9.062 26.982-16 37.504-25.677 34.253-9.856-3.302-9.037-15.898 0.051-42.88 9.062-27.008 16.23-38.221 26.086-34.893 9.677 3.251 8.602 16.512-0.461 43.52v0zM498.821 468.713c-15.667 46.515-4.147 70.246 20.813 78.618 24.781 8.32 48.282-3.61 63.898-50.15 15.642-46.541 4.070-70.042-20.685-78.387-24.986-8.371-48.41 3.405-64.026 49.92v0zM443.397 441.423c-13.645 24.96-22.298 34.15-31.283 29.261-9.114-4.992-6.093-17.229 7.526-42.214 13.619-25.037 22.63-34.816 31.718-29.824 9.011 4.89 5.658 17.741-7.962 42.778v0zM392.274 413.545c-23.501 43.085-16.307 68.429 6.81 81.024 22.963 12.518 48.179 4.838 71.68-38.246s16.205-68.275-6.784-80.819c-23.091-12.595-48.205-5.069-71.706 38.042v0zM301.010 346.191c-29.926 38.989-28.339 63.974-6.963 80.384 21.862 16.819 40.397 10.65 63.13-16.23l-21.53-19.712c-13.901 16.051-19.174 18.79-25.011 14.31-7.68-5.914-2.765-16.41 15.13-39.757 18.253-23.731 27.75-31.386 35.277-25.6 6.118 4.71 5.069 10.47-7.27 29.261l24.704 15.565c14.387-23.782 21.197-47.949-1.715-65.562-21.632-16.614-45.798-11.648-75.75 27.341v0z" />
<glyph unicode="&#xe946;" glyph-name="hey" d="M484.739 650.163c-1.024 11.238 7.424 20.966 18.662 21.99 11.29 0.794 21.274-7.654 22.298-18.918 0.768-11.264-7.68-20.992-18.944-22.016h-1.536c-10.752 0-19.712 8.192-20.48 18.944v0zM575.107 624.026c-10.752 3.328-16.896 14.618-13.568 25.6 3.072 10.752 14.592 16.922 25.6 13.594 10.752-3.328 16.896-14.848 13.568-25.6-2.56-8.704-10.752-14.618-19.712-14.618-1.792 0-3.84 0.538-5.888 1.024v0zM413.059 622.515c-4.864 10.214-0.768 22.528 9.472 27.366 10.24 5.12 22.528 0.794 27.392-9.446 4.864-10.010 0.768-22.272-9.472-27.392-2.816-1.28-5.888-2.048-8.96-2.048-7.424 0-14.848 4.352-18.432 11.52v0zM356.483 570.778c-8.192 7.706-8.704 20.506-1.28 28.928 7.68 8.218 20.736 8.986 28.928 1.306 8.448-7.706 8.96-20.736 1.28-29.21-4.096-4.326-9.472-6.4-15.104-6.4-4.864 0-9.984 1.818-13.824 5.376v0zM322.691 501.939c-10.496 4.096-15.872 15.872-11.776 26.342 4.096 10.496 15.872 15.872 26.624 11.802 10.496-4.096 15.616-15.872 11.52-26.624-3.072-7.936-10.752-13.082-18.944-13.082-2.56 0-5.12 0.538-7.424 1.562v0zM702.595 347.059c-10.496 4.352-15.36 16.64-10.752 26.88 4.352 10.496 16.358 15.36 26.88 10.752 10.24-4.352 15.078-16.41 10.752-26.88-3.328-7.706-11.008-12.288-18.944-12.288-2.56 0-5.376 0.512-7.936 1.536v0zM653.443 288.154c-7.936 7.706-7.936 20.762 0 28.928 7.936 7.962 20.736 7.962 28.928 0 7.936-7.91 8.192-20.71 0.23-28.928-4.070-4.070-9.446-6.118-14.566-6.118-5.376 0-10.496 2.048-14.592 6.118v0zM586.371 250.778c-4.608 10.266 0 22.528 10.496 27.162 10.24 4.608 22.528 0 27.136-10.496 4.608-10.266-0.256-22.528-10.496-27.162-2.816-0.998-5.632-1.766-8.192-1.766-7.936 0-15.36 4.608-18.944 12.262v0zM448.643 233.139v0c-10.752 3.584-16.384 15.104-12.8 25.856 3.558 10.752 15.36 16.358 26.112 12.8 10.752-3.584 16.384-15.36 12.8-25.856-3.072-8.704-11.008-14.080-19.456-14.080-2.304 0-4.352 0.512-6.656 1.28v0zM510.339 240.819c-0.538 11.264 8.448 20.71 19.712 21.248 11.264 0.486 20.736-8.192 21.248-19.456s-8.192-20.992-19.456-21.53h-0.768c-11.008 0-20.224 8.73-20.736 19.738v0zM659.1 452.787l32.051 3.61 3.123-27.981-32.051-3.61-3.123 27.981zM646.377 556.544l34.227 3.814 6.426-94.694-25.984-2.918-14.669 93.798zM570.217 452.736l-49.357 76.8 30.259 7.629 26.829-47.718 0.691 0.179 0.947 54.733 27.802 7.040-7.296-91.11 11.238-44.646-29.875-7.552-11.238 44.646zM427.625 492.442l60.442 25.318 10.112-24.115-32.077-13.44 9.651-22.938 22.784 9.549 9.421-22.451-22.81-9.574 12.339-29.414 33.178 13.901 9.754-23.296-61.619-25.779-51.174 122.24zM314.217 428.109l26.214 16.154 26.496-43.034 17.843 10.982-26.445 43.034 26.24 16.154 69.478-112.922-26.291-16.128-29.901 48.666-17.894-10.982 29.952-48.666-26.214-16.179-69.478 112.922z" />
<glyph unicode="&#xe947;" glyph-name="new" d="M694.351 350.431c-144.538-2.227-206.976-75.93-209.587-79.053-5.35-6.528-4.429-16.128 2.074-21.555 2.842-2.355 6.323-3.533 9.779-3.533 4.403 0 8.755 1.869 11.802 5.478 0.563 0.666 56.96 65.971 186.394 67.968 8.499 0.128 15.258 7.091 15.104 15.565-0.128 8.499-7.245 14.592-15.565 15.13v0zM705.82 423.903c-219.699-7.271-331.494-146.893-336.154-152.832-5.222-6.656-4.045-16.282 2.637-21.53 2.79-2.202 6.144-3.277 9.472-3.277 4.557 0 9.062 2.022 12.083 5.837 1.050 1.357 108.16 134.323 312.96 141.107 8.474 0.282 15.13 7.373 14.848 15.846-0.256 8.474-6.682 14.899-15.846 14.848v0zM654.287 464.146l32.128 2.662-2.278 28.058-32.154-2.662 2.304-28.058zM680.271 504.261l-3.686 94.797-34.278-2.816 11.904-94.157 26.061 2.176zM559.593 445.279l-8.269 78.72 0.666 0.205 31.514-72.653 25.498 6.707-11.443 134.374-25.293-6.656 4.941-39.245c1.664-13.414 3.2-25.626 6.349-42.394l-0.717-0.179c-5.888 16.051-10.803 26.957-16.589 40.627l-14.95 35.686-23.731-6.221 4.634-38.758c1.613-13.875 3.072-25.677 5.606-43.162l-0.691-0.179c-6.067 17.459-10.47 27.776-15.642 40.474l-14.669 36.147-28.749-7.552 56.090-122.624 25.446 6.682zM499.689 425.746l-11.264 22.63-32.282-16.102-14.234 28.57 22.118 11.059-10.88 21.811-22.17-11.059-11.136 22.323 31.13 15.539-11.674 23.424-58.752-29.338 59.341-118.733 59.802 29.875zM371.151 347.692l-18.944-14.464-80.512 105.446 25.242 19.226 41.216-26.214c9.267-6.246 16.102-10.752 22.682-15.846l0.589 0.435-43.827 57.421 18.944 14.49 80.486-105.446-20.813-15.898-50.432 30.029c-9.114 5.709-18.918 12.416-23.142 15.539l-0.563-0.461 49.075-64.256z" />
<glyph unicode="&#xe948;" glyph-name="omg" d="M387.712 527.037c6.221 5.76 6.63 15.462 0.845 21.709l-20.736 22.477c-5.76 6.221-15.514 6.554-21.709 0.845-6.221-5.76-6.63-15.462-0.845-21.709l20.736-22.477c3.046-3.277 7.168-4.915 11.29-4.915 3.712 0 7.475 1.357 10.419 4.070v0zM466.022 553.482c7.578 3.789 10.726 12.979 6.963 20.582l-37.402 75.674c-3.738 7.629-13.005 10.65-20.582 6.963-7.578-3.763-10.726-12.954-6.963-20.557l37.402-75.674c2.662-5.427 8.115-8.576 13.773-8.576 2.304 0 4.634 0.512 6.81 1.587v0zM541.363 577.29c8.397 1.152 14.31 8.909 13.158 17.306l-5.837 42.573c-1.178 8.422-9.011 14.438-17.306 13.133-8.397-1.126-14.285-8.883-13.133-17.28l5.811-42.573c1.050-7.706 7.654-13.286 15.206-13.286 0.691 0 1.408 0.026 2.099 0.128v0zM682.624 323.927c6.221 5.76 6.579 15.488 0.845 21.709l-31.258 33.792c-5.76 6.246-15.462 6.605-21.709 0.87-6.221-5.76-6.579-15.488-0.845-21.709l31.258-33.792c3.021-3.277 7.142-4.941 11.264-4.941 3.738 0 7.475 1.357 10.445 4.070v0zM613.709 239.293c7.603 3.763 10.726 12.979 6.989 20.557l-44.595 90.189c-3.738 7.629-13.005 10.675-20.557 6.963-7.603-3.763-10.726-12.954-6.989-20.557l44.57-90.189c2.688-5.427 8.141-8.576 13.798-8.576 2.278 0 4.608 0.538 6.784 1.613v0zM500.301 249.892c8.346 1.664 13.722 9.805 12.006 18.099l-10.163 50.074c-1.715 8.346-9.933 13.619-18.099 12.006-8.32-1.69-13.696-9.805-12.006-18.099l10.163-50.074c1.485-7.322 7.885-12.339 15.027-12.339 1.024 0 2.048 0.128 3.072 0.333v0zM680.909 461.143l32.154 2.509 2.176-28.032-32.128-2.509-2.202 28.032zM671.718 565.105l34.278 2.688 3.302-94.746-26.086-2.022-11.494 94.080zM557.235 477.245c-9.933 45.107-0.384 69.222 27.597 75.392 23.45 5.171 37.402-6.605 49.613-41.907l-26.291-9.062c-6.554 21.478-10.47 25.933-17.459 24.397-8.038-1.766-10.445-10.035-3.405-42.035 7.040-31.821 14.515-40.064 22.605-38.298 7.501 1.664 11.136 7.578 9.088 21.811l-12.595-2.79-4.992 22.758 38.118 8.397 14.413-65.408-19.072-4.198-3.814 15.846-0.384-0.102c-0.947-10.65-8.474-19.84-20.531-22.477-27.981-6.17-43.034 13.056-52.89 57.677v0zM405.325 488.535l33.843 14.362 45.594-73.088 0.666 0.282-20.864 83.584 33.792 14.336 51.789-122.035-25.062-10.65-33.382 78.694-0.666-0.282c4.506-14.259 5.683-20.198 8.013-29.875l13.005-54.042-19.968-8.448-30.515 48.102c-5.12 7.962-10.266 15.923-15.232 25.293l-0.614-0.282 33.357-78.669-21.914-9.318-51.84 122.035zM374.835 393.457c-15.77 23.757-25.19 32.128-33.69 26.47-8.678-5.734-4.634-17.69 11.136-41.446 15.744-23.731 25.549-32.717 34.227-26.957 8.525 5.632 4.070 18.176-11.674 41.933v0zM326.298 361.226c-27.162 40.96-22.195 66.842-0.205 81.408 21.786 14.49 47.565 9.011 74.752-31.949 27.11-40.934 22.067-66.637 0.23-81.126-21.965-14.566-47.616-9.242-74.778 31.667v0z" />
<glyph unicode="&#xe949;" glyph-name="oops1" d="M544.136 586.337l11.853 26.675c1.869 4.198 1.766 9.062-0.333 13.158-2.074 4.122-5.888 7.066-10.394 8.064l-5.35 1.178 5.171 12.058c3.328 7.757-0.282 16.819-8.064 20.173-7.731 3.251-16.845-0.282-20.173-8.090l-12.518-29.082c-1.792-4.198-1.613-9.011 0.461-13.082 2.099-4.045 5.888-7.014 10.368-7.987l5.12-1.126-4.198-9.498c-3.43-7.731 0.026-16.819 7.808-20.25 2.022-0.922 4.122-1.331 6.221-1.331 5.888 0 11.494 3.405 14.029 9.139v0zM494.651 237.025l16.87 42.010c1.613 4.019 1.434 8.55-0.435 12.442-1.894 3.891-5.35 6.81-9.523 8.038l-8.576 2.509 11.341 19.405c4.301 7.322 1.843 16.742-5.504 21.018-7.347 4.301-16.742 1.818-20.992-5.504l-21.274-36.403c-2.406-4.070-2.765-9.037-1.024-13.414 1.741-4.403 5.427-7.757 9.984-9.088l11.187-3.277-10.547-26.266c-3.174-7.885 0.64-16.819 8.525-19.994 1.869-0.742 3.84-1.101 5.734-1.101 6.067 0 11.853 3.635 14.234 9.626v0zM393.249 536.366c7.757 3.43 11.238 12.518 7.782 20.275l-21.581 48.512c-2.022 4.557-6.118 7.859-11.008 8.832-4.915 0.973-9.958-0.486-13.594-3.917l-14.31-13.594-20.762 34.97c-4.275 7.245-13.645 9.754-21.043 5.35-7.27-4.326-9.702-13.747-5.35-21.069l30.566-51.507c2.381-4.019 6.451-6.733 11.11-7.373 4.685-0.512 9.267 0.845 12.672 4.070l12.493 11.878 12.749-28.646c2.534-5.734 8.166-9.139 14.029-9.139 2.099 0 4.198 0.461 6.246 1.357v0zM727.585 295.47c5.683 6.298 5.146 16.026-1.178 21.658l-58.035 52.122c-3.686 3.277-8.704 4.608-13.594 3.558-4.838-1.075-8.858-4.429-10.803-8.986l-6.298-14.822-21.632 25.805c-5.504 6.528-15.206 7.296-21.658 1.92-6.502-5.478-7.347-15.155-1.894-21.658l37.734-44.979c3.43-4.070 8.653-6.016 14.054-5.325 5.274 0.794 9.779 4.275 11.853 9.19l7.706 18.074 42.061-37.734c2.944-2.662 6.605-3.942 10.266-3.942 4.198 0 8.397 1.715 11.418 5.12v0zM689.723 451.272l32.205 0.026 0.026-28.134-32.23-0.026v28.134zM688.571 555.617l34.381 0.026-4.070-94.694-26.138-0.026-4.173 94.694zM586.836 455.598l25.677 7.398c3.891-13.645 8.166-21.453 17.101-20.429 6.605 0.742 8.141 5.76 7.706 10.061-2.278 20.275-50.432 23.322-54.554 60.006-2.483 22.042 10.726 37.453 34.227 40.115 23.859 2.688 34.893-11.93 42.726-35.226l-25.958-9.421c-4.173 12.877-8.115 19.072-15.027 18.304-4.685-0.512-6.963-3.814-6.451-8.627 2.125-19.046 50.381-22.989 54.554-60.211 2.432-21.146-11.238-37.683-34.56-40.32-28.493-3.2-39.194 15.053-45.44 38.349v0zM524.859 465.198c8.141 2.202 10.317 7.782 6.093 23.526-4.070 15.053-8.653 18.278-16.973 16.051l-4.966-1.357 10.675-39.629 5.171 1.408zM472.968 520.776l33.357 9.011c20.224 5.453 43.827 3.277 53.53-32.691 10.522-38.938-10.854-51.2-29.901-56.32l-3.789-1.050 10.547-39.066-29.235-7.91-34.509 128.026zM437.768 435.758c-11.853 25.933-19.866 35.686-29.133 31.437-9.421-4.326-7.296-16.768 4.531-42.65 11.853-25.933 20.147-36.301 29.594-32 9.267 4.25 6.861 17.306-4.992 43.213v0zM384.776 411.566c-20.378 44.672-11.392 69.427 12.544 80.358 23.782 10.906 48.384 1.459 68.813-43.187 20.403-44.646 11.341-69.274-12.442-80.154-23.936-10.982-48.486-1.69-68.915 42.982v0zM340.283 383.124c-16.256 23.45-25.83 31.642-34.227 25.805-8.55-5.914-4.25-17.792 11.981-41.19 16.23-23.45 26.189-32.205 34.765-26.291 8.397 5.811 3.712 18.253-12.518 41.677v0zM292.385 349.972c-27.981 40.397-23.501 66.355-1.818 81.357 21.53 14.899 47.411 9.958 75.366-30.464 27.955-40.371 23.398-66.202 1.869-81.101-21.658-15.027-47.462-10.189-75.418 30.208v0z" />
<glyph unicode="&#xe94a;" glyph-name="oops2" d="M691.497 454.95l26.138-1.126 8.243 94.464-34.355 1.51-0.026-94.848zM686.812 417.344l32.179-1.382 1.254 28.058-32.205 1.434-1.229-28.109zM629.596 413.99c23.398 1.69 37.734 17.638 36.198 38.886-2.688 37.376-50.714 43.29-52.096 62.387-0.358 4.864 2.125 8.090 6.784 8.422 6.963 0.486 10.65-5.914 14.259-18.944l26.368 8.371c-6.886 23.578-17.331 38.656-41.293 36.941-23.603-1.69-37.453-16.538-35.84-38.682 2.586-36.838 50.611-41.856 52.070-62.259 0.307-4.25-1.51-9.242-8.064-9.728-8.96-0.64-12.979 7.373-16.282 21.12l-25.958-6.323c5.248-23.526 15.232-42.24 43.853-40.192v0zM518.646 464.346l-9.574 39.885 5.069 1.229c8.346 1.997 12.826-1.382 16.461-16.512 3.814-15.846 1.434-21.376-6.733-23.347l-5.222-1.254zM504.438 393.741l29.44 7.066-9.446 39.347 3.84 0.896c19.149 4.608 40.858 16.256 31.488 55.398-8.678 36.25-32.179 39.066-52.557 34.202l-33.664-8.038 30.899-128.87zM440.515 394.509c-9.446-4.301-17.69 6.118-29.491 32.102-11.75 25.933-13.875 38.4-4.378 42.701 9.293 4.224 17.28-5.555 29.056-31.514 11.776-25.984 14.182-39.091 4.813-43.29v0zM451.42 370.496c23.859 10.803 32.998 35.43 12.698 80.179-20.275 44.749-44.877 54.272-68.736 43.443-24.013-10.88-33.024-35.635-12.749-80.384 20.275-44.723 44.774-54.144 68.787-43.238v0zM351.759 342.643c-8.371-6.17-18.611 2.33-35.482 25.318-16.819 22.963-21.478 34.688-13.082 40.858 8.218 6.067 18.048-1.869 34.918-24.832 16.845-22.989 21.914-35.277 13.645-41.344v0zM367.375 321.395c21.094 15.514 24.934 41.446-4.096 81.050-29.107 39.603-55.117 43.827-76.211 28.365-21.248-15.616-24.986-41.702 4.070-81.306 29.082-39.629 55.014-43.699 76.237-28.109v0zM319.171 530.598c145.408 127.821 378.701 56.371 381.056 55.629 7.987-2.483 16.691 1.946 19.277 10.035 2.534 8.064-1.92 16.691-10.035 19.251-10.214 3.2-252.006 77.619-410.598-61.875-6.349-5.581-6.963-15.283-1.382-21.658 3.046-3.456 7.296-5.197 11.546-5.197 3.584 0 7.219 1.229 10.138 3.814v0zM462.915 227.853c-3.021 0-6.067 0.87-8.755 2.739-6.963 4.864-8.653 14.438-3.814 21.376 91.802 131.942 247.014 119.501 253.568 118.938 8.448-0.768 14.669-8.218 13.901-16.666-0.742-8.474-8.141-15.13-16.614-13.952-1.382 0.205-144.23 11.11-225.664-105.856-2.97-4.301-7.731-6.579-12.621-6.579v0z" />
<glyph unicode="&#xe94b;" glyph-name="yeah" d="M344.387 515.924c28.134 72.678 99.379 121.523 177.331 121.523 35.814 0 70.682-10.035 100.864-28.979 7.296-4.531 16.742-2.355 21.171 4.838 4.531 7.194 2.355 16.666-4.813 21.171-35.072 22.042-75.622 33.664-117.222 33.664-90.522 0-173.312-56.704-205.978-141.107-3.046-7.936 0.87-16.845 8.781-19.891 1.818-0.691 3.686-1.050 5.53-1.050 6.17 0 11.981 3.763 14.336 9.83v0zM724.7 360.379c3.328 7.808-0.256 16.819-8.064 20.173-7.782 3.328-16.819-0.282-20.173-8.090-30.029-69.965-98.637-115.2-174.746-115.2-28.928 0-56.704 6.349-82.534 18.816-7.603 3.712-16.794 0.512-20.506-7.142-3.686-7.629-0.486-16.845 7.168-20.506 30.003-14.515 62.259-21.862 95.872-21.862 88.422 0 168.090 52.506 202.982 133.811v0zM718.121 460.347l32.205 0.845 0.768-28.109-32.256-0.87-0.717 28.134zM714.23 564.718l34.381 0.922-1.587-94.848-26.138-0.691-6.656 94.618zM585.129 548.155l30.413 5.146 8.474-49.843 20.659 3.482-8.448 49.894 30.464 5.146 22.144-130.867-30.387-5.171-9.574 56.422-20.685-3.507 9.549-56.397-30.438-5.171-22.17 130.867zM535.26 446.958c-7.219 13.030-12.339 21.146-21.709 40.832l-0.666-0.23c5.12-21.197 5.99-30.182 8.397-44.698l0.819-5.069 15.258 5.325-2.099 3.84zM529.884 392.097l-25.011-8.73-16.845 135.194 29.082 10.163 71.014-116.275-28.442-9.958-12.109 22.195-22.016-7.68 4.326-24.909zM368.22 461.627l57.907 30.72 12.288-23.091-30.669-16.307 11.648-21.965 21.811 11.571 11.443-21.53-21.837-11.571 14.95-28.186 31.821 16.87 11.802-22.298-59.034-31.334-62.131 117.12zM338.294 336.904l-74.829 52.352 25.088 18.534 42.957-33.997 0.589 0.435-19.917 51.046 23.091 17.050 27.802-87.091 27.418-37.069-24.806-18.304-27.392 37.043z" />
<glyph unicode="&#xe94c;" glyph-name="altavozoff" d="M592.665 620.753c4.396-7.72 6.707-16.451 6.707-25.334v-284.471c0-28.277-22.923-51.2-51.2-51.2-8.915 0-17.676 2.328-25.416 6.754l-138.327 79.099h-51.63c-28.277 0-51.2 22.923-51.2 51.2v102.4c0 28.277 22.923 51.2 51.2 51.2h38.416c3.681 4.17 8.068 7.771 13.050 10.608l138.573 78.904c24.573 13.992 55.835 5.414 69.827-19.158zM541.839 606.542l-138.573-78.904c-1.237-0.704-2.332-1.596-3.26-2.648l-11.465-12.99h-55.742c-7.069 0-12.8-5.731-12.8-12.8v-102.4c0-7.069 5.731-12.8 12.8-12.8h61.834l147.185-84.164c1.935-1.106 4.125-1.688 6.354-1.688 7.069 0 12.8 5.731 12.8 12.8v284.471c0 2.221-0.578 4.404-1.677 6.334-3.498 6.143-11.314 8.288-17.457 4.79zM691.56 540.209l2.149-1.864 50.571-50.793 50.584 50.793c7.48 7.516 19.637 7.544 27.153 0.064s7.544-19.637 0.064-27.153l-50.716-50.942 50.716-50.945c6.8-6.832 7.395-17.5 1.8-25.004l-1.864-2.149c-6.832-6.8-17.5-7.395-25.004-1.8l-2.149 1.864-50.584 50.821-50.571-50.821c-7.48-7.516-19.637-7.544-27.153-0.064s-7.544 19.637-0.064 27.153l50.677 50.945-50.677 50.942c-6.8 6.832-7.395 17.5-1.8 25.004l1.864 2.149c6.832 6.8 17.5 7.395 25.004 1.8z" />
<glyph unicode="&#xe94d;" glyph-name="altavozon" d="M592.665 620.753c4.396-7.72 6.707-16.451 6.707-25.334v-284.471c0-28.277-22.923-51.2-51.2-51.2-8.915 0-17.676 2.328-25.416 6.754l-138.327 79.099h-51.63c-28.277 0-51.2 22.923-51.2 51.2v102.4c0 28.277 22.923 51.2 51.2 51.2h38.416c3.681 4.17 8.068 7.771 13.050 10.608l138.573 78.904c24.573 13.992 55.835 5.414 69.827-19.158zM541.839 606.542l-138.573-78.904c-1.237-0.704-2.332-1.596-3.26-2.648l-11.465-12.99h-55.742c-7.069 0-12.8-5.731-12.8-12.8v-102.4c0-7.069 5.731-12.8 12.8-12.8h61.834l147.185-84.164c1.935-1.106 4.125-1.688 6.354-1.688 7.069 0 12.8 5.731 12.8 12.8v284.471c0 2.221-0.578 4.404-1.677 6.334-3.498 6.143-11.314 8.288-17.457 4.79zM732.532 553.873c9.086 5.467 20.884 2.532 26.35-6.554 18.858-31.346 28.289-66.6 28.289-105.382s-9.43-74.036-28.289-105.382c-5.467-9.086-17.264-12.021-26.35-6.554s-12.021 17.264-6.554 26.35c15.196 25.258 22.793 53.659 22.793 85.585s-7.597 60.328-22.793 85.585c-5.467 9.086-2.532 20.884 6.554 26.35zM659.775 531.596c9.23 5.221 20.944 1.97 26.165-7.259 13.898-24.571 20.833-52.147 20.833-82.4s-6.935-57.829-20.833-82.4c-5.221-9.23-16.935-12.48-26.165-7.259s-12.48 16.935-7.259 26.165c10.561 18.672 15.856 39.728 15.856 63.494s-5.295 44.822-15.856 63.494c-5.221 9.23-1.97 20.944 7.259 26.165z" />
<glyph unicode="&#xe94e;" glyph-name="changes" d="M567.834 440.66c3.84 0 7.245-1.331 10.317-3.2l-8.192 14.925c-5.453 9.907-1.818 22.349 8.090 27.802 9.882 5.427 22.374 1.843 27.802-8.090l23.117-42.061c3.379-6.118 3.379-13.568 0-19.712l-23.117-42.061c-3.712-6.784-10.726-10.624-17.946-10.624-3.354 0-6.733 0.845-9.856 2.534-9.907 5.453-13.542 17.92-8.090 27.827l8.192 14.899c-3.072-1.843-6.477-3.2-10.317-3.2h-50.79c-11.315 0-20.48 9.165-20.48 20.48s9.165 20.48 20.48 20.48h50.79zM527.616 363.374c0-11.29-9.165-20.454-20.48-20.454h-50.79c-3.84 0-7.245 1.331-10.317 3.174l8.192-14.899c5.453-9.907 1.818-22.349-8.090-27.802-3.123-1.715-6.502-2.534-9.856-2.534-7.219 0-14.234 3.814-17.946 10.624l-23.117 42.035c-3.379 6.144-3.379 13.594 0 19.738l23.117 42.035c5.427 9.933 17.92 13.517 27.802 8.090 9.907-5.453 13.542-17.894 8.090-27.802l-8.192-14.899c3.072 1.843 6.477 3.174 10.317 3.174h50.79c11.315 0 20.48-9.165 20.48-20.48v0zM667.315 272.648c0-4.89-3.123-9.011-6.81-9.011h-299.085c-3.712 0-6.835 4.122-6.835 9.011v247.27h312.73v-247.27zM403.2 629.563c0.486 0.973 3.021 2.714 6.886 2.714h80.41v-71.398h-122.752l35.456 68.685zM618.701 629.563l35.482-68.685h-122.752v71.398h80.384c3.891 0 6.4-1.741 6.886-2.714v0zM706.15 549.153c-0.102 0.205-0.051 0.435-0.154 0.64l-50.893 98.586c-7.808 15.104-24.806 24.858-43.29 24.858h-201.728c-18.483 0-35.482-9.754-43.29-24.858l-50.893-98.586c-0.102-0.205-0.051-0.435-0.154-0.64-1.254-2.688-2.125-5.581-2.125-8.755v-267.75c0-27.546 21.427-49.971 47.795-49.971h299.085c26.342 0 47.77 22.426 47.77 49.971v267.75c0 3.174-0.845 6.067-2.125 8.755v0z" />
<glyph unicode="&#xe94f;" glyph-name="delivery" d="M710.323 436.505l-57.522-0.002c-11.311 0-20.481 9.168-20.481 20.479s9.168 20.48 20.479 20.481l38.065 0.002-14.822 31.019c-1.022 2.138-4.33 4.066-8.484 4.066h-88.764v-139.167c10.796 8.509 24.423 13.586 39.235 13.586 25.796 0 47.996-15.397 57.91-37.503h45.979v31.661c0 18.902-3.927 37.655-11.597 55.378v0zM679.676 308.505c-6.749-27.781-31.788-48.408-61.645-48.408s-54.896 20.627-61.645 48.408h-113.401c-6.749-27.781-31.788-48.408-61.645-48.408s-54.896 20.627-61.645 48.408h-38.095c-11.311 0-20.48 9.169-20.48 20.48v298.215c0 11.311 9.169 20.48 20.48 20.48h276.715c11.311 0 20.48-9.169 20.48-20.48v-73.691h88.764c19.412 0 37.365-10.465 45.441-27.367l32.016-67.002c11.781-24.654 17.864-51.186 17.864-78.013v-52.141c0-11.311-9.169-20.48-20.48-20.48h-62.724zM323.43 349.465c9.914 22.106 32.114 37.503 57.91 37.503s47.996-15.397 57.91-37.503h98.586v257.255h-235.755v-257.255h21.35zM381.34 301.057c12.413 0 22.475 10.063 22.475 22.475s-10.063 22.475-22.475 22.475c-12.413 0-22.475-10.063-22.475-22.475s10.063-22.475 22.475-22.475zM618.031 301.057c12.413 0 22.475 10.063 22.475 22.475s-10.063 22.475-22.475 22.475c-12.413 0-22.475-10.063-22.475-22.475s10.063-22.475 22.475-22.475z" />
<glyph unicode="&#xe950;" glyph-name="gift-card" d="M413.524 633.876c1.51 0 3.2-0.23 5.069-0.768 16.998-4.864 31.309-15.283 41.83-25.114-19.635-3.866-41.651-5.581-52.966 0.896-5.965 3.43-8.422 10.47-6.093 17.51 0.026 0.077 3.456 7.475 12.16 7.475zM622.651 626.401c2.304-7.040-0.128-14.054-6.118-17.51-10.752-6.144-32.41-4.915-52.966-0.922 10.522 9.856 24.832 20.275 41.83 25.139 12.493 3.635 17.203-6.605 17.254-6.707zM430.523 563.784c33.715 0 68.070 11.622 73.446 13.517 3.123 1.101 5.811 2.995 8.038 5.376 2.227-2.381 4.89-4.275 8.038-5.376 5.35-1.894 39.706-13.517 73.421-13.517 15.616 0 31.053 2.483 43.443 9.6 22.963 13.158 33.101 40.243 24.602 65.894-7.629 23.066-35.533 42.291-67.405 33.203-44.749-12.851-73.958-49.92-82.099-61.338-8.166 11.418-37.376 48.486-82.099 61.338-31.923 9.139-59.776-10.112-67.43-33.203-8.474-25.626 1.638-52.736 24.602-65.894 12.39-7.117 27.853-9.6 43.443-9.6zM667.323 272.686c0-4.89-3.123-9.011-6.835-9.011h-129.050v126.157h135.885v-117.146zM354.568 389.832h135.91v-126.157h-129.075c-3.686 0-6.835 4.122-6.835 9.011v117.146zM490.478 483.681v-52.89h-148.89v52.89h148.89zM680.328 483.681v-52.89h-148.89v52.89h148.89zM721.288 504.161c0 3.302-0.973 6.298-2.355 9.062-0.128 0.282-0.077 0.614-0.23 0.87l-25.626 46.234c-5.504 9.933-17.971 13.491-27.853 7.987-9.882-5.478-13.466-17.946-7.962-27.827l8.755-15.846h-134.579v13.67c0 11.315-9.165 20.48-20.48 20.48s-20.48-9.165-20.48-20.48v-13.67h-134.605l8.781 15.846c5.478 9.882 1.92 22.349-7.987 27.827-9.856 5.504-22.349 1.92-27.827-7.987l-25.626-46.234c-0.154-0.256-0.077-0.589-0.23-0.845-1.382-2.79-2.355-5.786-2.355-9.088v-93.85c0-8.653 5.402-15.974 13.005-18.97v-118.656c0-27.571 21.427-49.971 47.77-49.971h299.085c26.342 0 47.795 22.4 47.795 49.971v118.656c7.603 2.995 13.005 10.317 13.005 18.97v93.85z" />
<glyph unicode="&#xe951;" glyph-name="gift-ticket" d="M664.832 316.831l16.922-30.029h-181.734c0.026 0.435 0.256 0.819 0.256 1.28v34.918c0 11.315-9.165 20.48-20.48 20.48-11.29 0-20.454-9.165-20.454-20.48v-34.918c0-0.461 0.23-0.845 0.256-1.28h-131.917v139.648h57.856c-4.89-4.634-9.19-9.702-12.39-15.283-13.107-23.014-8.090-51.507 12.211-69.299 8.781-7.706 21.171-12.237 34.176-12.237 14.080 0 28.928 5.325 40.781 17.792 9.216 9.728 16.282 20.531 21.76 31.309 8.371-15.744 19.354-30.387 33.51-38.451 8.576-4.89 17.92-7.27 27.162-7.27 15.59 0 30.95 6.733 42.138 19.482 15.795 18.048 18.253 51.2-4.736 73.958h90.598l22.477-39.117-28.39-50.406c-3.533-6.221-3.533-13.85 0-20.096v0zM505.728 475.32c4.070 13.824 11.11 30.054 23.296 42.906 3.789 3.968 7.629 5.12 10.803 5.12 4.326 0 7.424-2.125 7.45-2.176 5.581-4.864 7.040-12.186 3.635-18.176-6.144-10.752-25.446-20.685-45.184-27.674v0zM405.581 514.386c3.123 3.558 7.219 5.453 11.341 5.453 2.33 0 4.659-0.589 6.835-1.843 10.752-6.118 20.659-25.421 27.648-45.158-13.798 4.070-30.054 11.11-42.88 23.296-9.395 8.934-3.021 18.176-2.944 18.253v0zM453.888 418.514c-4.070-13.85-11.136-30.106-23.27-42.88-8.986-9.395-18.202-3.046-18.253-2.97-5.606 4.89-7.040 12.211-3.635 18.202 6.144 10.752 25.421 20.659 45.158 27.648v0zM554.061 379.474c-4.89-5.581-12.211-7.040-18.176-3.635-10.752 6.144-20.685 25.421-27.648 45.184 13.798-4.070 30.054-11.136 42.88-23.322 9.395-8.909 3.021-18.15 2.944-18.227v0zM459.341 609.208v-33.562c0-11.315 9.165-20.454 20.454-20.454 11.315 0 20.48 9.139 20.48 20.454v33.562h181.478l-16.922-30.029c-3.533-6.246-3.533-13.875 0-20.122l28.518-50.586-22.707-41.088h-96.538c4.89 4.659 9.165 9.702 12.365 15.309 13.133 23.014 8.115 51.507-12.211 69.299-18.278 16.026-52.147 18.432-74.931-5.581-9.216-9.702-16.307-20.506-21.76-31.309-8.371 15.744-19.354 30.387-33.536 38.477-22.938 13.107-51.456 8.115-69.274-12.211-15.795-18.048-18.253-51.2 4.736-73.984h-51.814v141.824h131.661zM706.176 326.892l28.467 50.509c3.533 6.272 3.507 13.978-0.102 20.25l-28.365 49.357 28.544 51.661c3.43 6.221 3.405 13.773-0.077 19.942l-28.467 50.509 28.467 50.509c3.558 6.349 3.507 14.106-0.154 20.403-3.686 6.272-10.419 10.138-17.69 10.138h-409.6c-11.315 0-20.48-9.165-20.48-20.48v-363.366c0-11.315 9.165-20.48 20.48-20.48h409.6c7.27 0 14.003 3.866 17.69 10.138 3.661 6.298 3.712 14.054 0.154 20.378l-28.467 50.534z" />
<glyph unicode="&#xe952;" glyph-name="invoice" d="M629.596 456.832c7.578-8.397 6.938-21.35-1.485-28.928l-106.112-95.821c-3.866-3.507-8.781-5.274-13.722-5.274-4.122 0-8.269 1.229-11.802 3.738l-61.389 43.29c-9.242 6.502-11.443 19.302-4.941 28.544 6.554 9.242 19.328 11.392 28.544 4.915l48-33.843 93.978 84.864c8.422 7.578 21.376 6.886 28.928-1.485v0zM389.11 493.261c0 11.315 9.165 20.48 20.48 20.48h102.4c11.315 0 20.48-9.165 20.48-20.48s-9.165-20.454-20.48-20.454h-102.4c-11.315 0-20.48 9.139-20.48 20.454v0zM389.11 570.061c0 11.315 9.165 20.48 20.48 20.48h204.8c11.315 0 20.48-9.165 20.48-20.48s-9.165-20.454-20.48-20.454h-204.8c-11.315 0-20.48 9.139-20.48 20.454v0zM673.219 278.246l-30.054 16.922c-6.221 3.533-13.875 3.533-20.096 0l-50.611-28.518-51.738 28.595c-3.098 1.715-6.502 2.56-9.907 2.56-3.533 0-7.066-0.896-10.214-2.714l-49.254-28.314-50.406 28.39c-6.221 3.533-13.875 3.533-20.096 0l-30.054-16.922v354.074h322.432v-354.074zM693.673 673.28h-363.341c-11.315 0-20.48-9.165-20.48-20.48v-409.6c0-7.27 3.866-14.003 10.138-17.69 6.272-3.661 14.054-3.712 20.378-0.154l50.509 28.467 50.509-28.467c6.298-3.558 14.003-3.533 20.275 0.102l49.357 28.365 51.635-28.544c3.072-1.69 6.502-2.56 9.907-2.56 3.456 0 6.938 0.896 10.061 2.637l50.509 28.467 50.509-28.467c6.323-3.558 14.080-3.507 20.378 0.154 6.272 3.686 10.138 10.419 10.138 17.69v409.6c0 11.315-9.165 20.48-20.48 20.48v0z" />
<glyph unicode="&#xe953;" glyph-name="order-status" d="M487.017 370.038l93.978 84.864c8.371 7.578 21.299 6.938 28.928-1.485 7.578-8.371 6.912-21.35-1.485-28.928l-106.112-95.821c-3.891-3.507-8.806-5.274-13.722-5.274-4.122 0-8.269 1.229-11.802 3.738l-61.414 43.29c-9.242 6.528-11.443 19.302-4.941 28.544 6.528 9.242 19.328 11.418 28.544 4.941l48.026-33.869zM667.318 272.63c0-4.864-3.123-8.986-6.835-8.986h-299.059c-3.712 0-6.835 4.122-6.835 8.986v247.296h312.73v-247.296zM403.228 629.571c0.486 0.947 2.995 2.714 6.861 2.714h80.384v-71.398h-122.752l35.507 68.685zM618.703 629.571l35.482-68.685h-122.752v71.398h80.384c3.866 0 6.4-1.766 6.886-2.714v0zM706.153 549.135c-0.102 0.205-0.051 0.461-0.154 0.666l-50.918 98.586c-7.782 15.078-24.781 24.858-43.264 24.858h-201.728c-18.483 0-35.482-9.779-43.264-24.858l-50.918-98.586c-0.102-0.205-0.051-0.461-0.154-0.666-1.28-2.662-2.125-5.581-2.125-8.73v-267.776c0-27.546 21.427-49.946 47.795-49.946h299.059c26.368 0 47.795 22.4 47.795 49.946v267.776c0 3.149-0.845 6.067-2.125 8.73v0z" />
<glyph unicode="&#xe954;" glyph-name="package" d="M667.32 272.676c0-4.864-3.123-9.011-6.835-9.011h-299.085c-3.686 0-6.81 4.147-6.81 9.011v247.296h312.73v-247.296zM403.205 629.591c0.486 0.947 2.995 2.739 6.886 2.739h80.384v-71.424h-122.752l35.482 68.685zM618.706 629.617l35.456-68.71h-122.726v71.424h80.384c3.866 0 6.4-1.792 6.886-2.714v0zM706.156 549.181c-0.102 0.205-0.051 0.435-0.154 0.666l-50.918 98.586c-7.808 15.104-24.781 24.832-43.264 24.832h-201.728c-18.483 0-35.456-9.728-43.264-24.832 0-0.026-0.026-0.026-0.026-0.026l-50.893-98.56c-0.102-0.23-0.051-0.461-0.154-0.666-1.28-2.662-2.125-5.581-2.125-8.755v-267.75c0-27.546 21.427-49.946 47.77-49.946h299.085c26.368 0 47.795 22.4 47.795 49.946v267.75c0 3.174-0.87 6.093-2.125 8.755v0z" />
<glyph unicode="&#xe955;" glyph-name="payments" d="M664.835 385.016c0-16.102-13.030-29.133-29.133-29.133-7.654 0-14.541 3.098-19.738 7.936-5.197-4.838-12.058-7.936-19.738-7.936-16.077 0-29.107 13.030-29.107 29.133 0 16.077 13.030 29.133 29.107 29.133 7.68 0 14.541-3.098 19.738-7.936 5.197 4.838 12.083 7.936 19.738 7.936 16.102 0 29.133-13.056 29.133-29.133zM673.59 319.48h-323.174c-12.544 0-22.733 10.214-22.733 22.733v131.891h368.64v-131.891c0-12.518-10.189-22.733-22.733-22.733zM350.415 576.504h323.174c12.544 0 22.733-10.189 22.733-22.733v-38.707h-368.64v38.707c0 12.544 10.189 22.733 22.733 22.733zM673.59 617.464h-323.174c-35.123 0-63.693-28.57-63.693-63.693v-211.558c0-35.098 28.57-63.667 63.693-63.667h323.174c35.123 0 63.693 28.57 63.693 63.667v211.558c0 35.123-28.57 63.693-63.693 63.693z" />
<glyph unicode="&#xe956;" glyph-name="preparation" d="M698.221 507.038v-225.254c0-25.449-20.631-46.080-46.080-46.080h-288.651c-25.449 0-46.080 20.631-46.080 46.080v224.566l-86.14-34.84c-17.846-7.218-34.889 11.94-25.641 28.824l60.053 109.645c2.397 4.377 6.31 7.728 11.003 9.423l120.744 43.623c3.091 1.117 6.275 1.444 9.331 1.085 0.799 0.042 1.601 0.063 2.407 0.063h197.282c1.194 0 2.381-0.046 3.558-0.137 3.228 0.471 6.615 0.175 9.897-1.011l120.744-43.623c4.693-1.696 8.606-5.047 11.003-9.423l60.053-109.645c9.247-16.884-7.795-36.042-25.641-28.824l-87.84 35.528zM692.496 553.537l55.707-22.531-28.757 52.505-52.756 19.060 25.806-49.034zM322.674 552.663l0.035 0.067 25.82 49.078-50.644-18.297-28.757-52.505 53.545 21.657zM644.045 557.65l-33.066 62.828c-0.885 1.682-2.63 2.735-4.531 2.735h-197.282c-1.901 0-3.646-1.054-4.531-2.736l-33.054-62.828h272.464zM657.261 516.69h-298.891v-234.906c0-2.828 2.292-5.12 5.12-5.12h288.651c2.828 0 5.12 2.292 5.12 5.12v234.906z" />
</font>
</defs>
</svg>
