<!DOCTYPE svg PUBLIC "-//W3C//DTD SVG 1.1//EN" "http://www.w3.org/Graphics/SVG/1.1/DTD/svg11.dtd">
<!-- Uploaded to: SVG Repo, www.svgrepo.com, Transformed by: SVG Repo Mixer Tools -->
<svg height="800px" width="800px" version="1.1" id="Layer_1" xmlns="http://www.w3.org/2000/svg" xmlns:xlink="http://www.w3.org/1999/xlink" viewBox="0 0 512.001 512.001" xml:space="preserve" fill="#000000" stroke="#000000" stroke-width="0.0051200099999999995">
<g id="SVGRepo_bgCarrier" stroke-width="0"/>
<g id="SVGRepo_tracerCarrier" stroke-linecap="round" stroke-linejoin="round"/>
<g id="SVGRepo_iconCarrier"> <g> <g> <path style="fill:#231F20;" d="M256.001,0C114.626,0,0.001,115.096,0.001,256.001c0,140.843,114.557,256.001,255.999,256.001 c141.374,0,256.001-115.095,256.001-256.001C512.001,115.157,397.444,0,256.001,0z M451.982,171.012 c8.658,19.89,14.382,41.339,16.604,63.805h-84.675c-0.86-21.974-3.05-43.39-6.492-63.805H451.982z M427.418,128.645h-59.339 c-6.598-23.795-15.797-47.958-28.281-69.147C374.768,74.467,404.967,98.506,427.418,128.645z M256.001,42.367 c32.864,0,57.648,53.997,67.915,86.278H188.087C198.272,96.617,223.057,42.367,256.001,42.367z M334.431,171.012 c3.757,20.163,6.152,41.617,7.085,63.805H170.485c0.934-22.188,3.327-43.641,7.085-63.805H334.431z M172.205,59.498 c-12.484,21.188-21.683,45.35-28.281,69.147H84.584C107.034,98.506,137.234,74.467,172.205,59.498z M60.021,171.012h74.563 c-3.442,20.414-5.633,41.831-6.492,63.805H43.417C45.639,212.351,51.362,190.902,60.021,171.012z M60.021,340.988 c-8.658-19.89-14.382-41.339-16.604-63.805h84.675c0.86,21.974,3.05,43.39,6.492,63.805H60.021z M84.584,383.355h59.339 c6.597,23.793,15.797,47.96,28.281,69.147C137.234,437.533,107.034,413.494,84.584,383.355z M256.001,469.633 c-32.864,0-57.648-53.997-67.914-86.278h135.829C313.729,415.383,288.945,469.633,256.001,469.633z M177.57,340.988 c-3.757-20.163-6.152-41.617-7.085-63.805h171.031c-0.933,22.188-3.327,43.641-7.085,63.805H177.57z M339.797,452.502 c12.484-21.186,21.683-45.351,28.281-69.147h59.339C404.967,413.494,374.768,437.533,339.797,452.502z M451.981,340.988h-74.563 c3.442-20.414,5.633-41.831,6.492-63.805h84.674C466.363,299.649,460.639,321.098,451.981,340.988z"/> </g> </g> </g>
</svg>